<?xml version="1.0" encoding="UTF-8"?>
<svg id="Layer_1" xmlns="http://www.w3.org/2000/svg" version="1.1" viewBox="0 0 520 402.9">
  <!-- Generator: Adobe Illustrator 29.8.1, SVG Export Plug-In . SVG Version: 2.1.1 Build 2)  -->
  <defs>
    <style>
      .st0 {
        stroke-width: 2px;
      }

      .st0, .st1 {
        fill: none;
        stroke: #730e02;
        stroke-linecap: round;
        stroke-linejoin: round;
      }

      .st1 {
        stroke-width: 15px;
      }

      .st2 {
        display: none;
      }
    </style>
  </defs>
  <g class="st2">
    <path class="st0" d="M366.6,245.2c-2,1.8-4.6,2-7,2.4-4.5.7-9,.5-13.3-1-5.3-1.9-10-4.5-13.7-8.9-.6-.7-1-1.5-.4-2.5.6-1.1-.2-2.6.7-3.7"/>
    <path class="st0" d="M331.7,235.9c-1.3-.2-1.7-1.4-2.2-2.3-2.6-4.6-4.2-9.5-4-14.9.2-5.3,1.2-10.4,4-15.1,3.7-6.1,8.7-10.6,15.5-12.9,2.6-.9,5.2-1.9,8-1.8,2.8,0,5.6-.4,8.2.6,2.9,1.1,6,1.4,8.6,3.1,3.3,2.1,6.4,4.3,8.7,7.4,3.2,4.2,5.6,8.7,6.2,14.2.8,7.3-.5,14.1-4.4,20.3-.5.8-.9,1.6-1.9,1.8"/>
    <path class="st0" d="M344,245c2.3-2.5,5.1-2.9,8.4-2.3,2.8.5,5.6.5,8.4-.3.5-.1,1.1-.3,1.6.2,1.1,1.1,2.9,1,4.1,2.2.7.7,1.6.3,2.2,0,3.1-1.8,6.2-3.6,8.6-6.4.7-.8.8-1.7.8-2.8,0-2.1-.8-4.2.6-6.3,1.8-2.8,2.4-6.2,2.8-9.4.2-2,1.5-2.6,2.9-3.3"/>
    <path class="st0" d="M326.1,216.4c2.3.8,3.3,2.4,3.6,4.9.3,3,1.4,5.8,2.6,8.6.4,1,1.1,1.3,2.1,1.6,2.8.9,5.5,1.6,8.4,1.9"/>
    <path class="st0" d="M365.4,212.7c-1.1,3.3-2.1,6.7-3.1,10-.5,1.4-1.1,2-2.7,2-3.5-.2-7,.3-10.5-.6"/>
    <path class="st0" d="M363.8,193.5c-2.5,1.3-5.3,1.9-7.9,3.2-1.2.6-2.1-.3-2.9-.6-2-.8-4.1-1.3-6-2.2-1.3-.6-2.5.4-3.5.9-3.1,1.7-6,3.6-8.3,6.4-1.1,1.3-2.7.7-4.2.7"/>
    <path class="st0" d="M363.3,190.7c.2,1.5.7,2.7,2.3,3.4,3.5,1.6,6.7,3.9,9.3,6.8,1.2,1.3,2.8.8,4.2.9"/>
    <path class="st0" d="M335.6,210.3c2.8.7,5.7,1.2,8.4,2,.8.3,1.2.5,1.4,1.3.9,3.4,1.8,6.8,3.3,10,.5,1-.2,1.6-.7,2.3-1.5,2-2.9,4.1-4.4,6.1-.7.9-.6,1.7,0,2.8,1.2,2.3,2.6,4.4,4.1,6.4.2.3.4.5.3.9"/>
    <path class="st0" d="M375,210.1c-2.9.9-6,1.3-8.9,2.3-.6.2-1.1.1-1.6-.3-2.4-2.3-5.5-3.8-8-5.8-1-.8-1.9-.7-2.6,0-2.9,2.2-6,4.1-8.8,6.5"/>
    <path class="st0" d="M377.5,231.5c-2.5.1-4.9,1.2-7.4,1.6-1.8.3-2.8,1.1-3.8,2.8-1,1.7-2.1,3.4-3.4,4.9-.5.5-.5,1.1-.7,1.6"/>
    <path class="st0" d="M361.5,224.7c2.1,2.9,4,6,6.1,8.9"/>
    <path class="st0" d="M355.2,197v8.4"/>
    <path class="st0" d="M375.7,201.9c-.4,2.6.1,5.3-.5,7.9,0,.4.1.5.3.7,2.1,2.3,3.8,4.9,6,7.2.1.2.2.2.4.2"/>
    <path class="st0" d="M334.6,202.1c.4,2,.3,4,.6,6,.2,1.5,0,2.8-1.3,4.1-1.8,1.8-3.1,4.1-4.8,6.1"/>
  </g>
  <g class="st2">
    <path class="st0" d="M74.4,245.3c0-.8,0-1.6.3-2.5,1.4-4.4,2.5-8.9,3.8-13.3.5-1.8,1.9-2.9,3.1-4.2,7.8-8.6,15.8-16.9,23.8-25.3,1.8-1.9,3.8-3.8,5.5-5.7,1.6-1.7,3-3.5,4.7-5.2,2.1-2.1,4-1.7,5.9-.2,1.8,1.4,3.5,2.9,4.9,4.7,1.7,2.2,1.6,3.8-.2,5.8-7.4,8.5-15,16.8-22.5,25.2-3.4,3.9-7,7.7-10.5,11.6-2,2.2-4.6,3.4-7.3,4.5-2.9,1.1-6,2-8.6,3.8-1.1.7-2.4.2-3.4,1.2"/>
    <path class="st0" d="M115.8,204c-6.9,7.2-13.4,14.8-20.1,22.1-2.4,2.6-4.8,5.1-7,7.9-.1.2-.2.3-.2.5"/>
    <path class="st0" d="M111.6,199.8c-6.1,6.7-12.3,13.3-18.4,20-3.1,3.4-6.1,6.9-9.3,10.2"/>
    <path class="st0" d="M113.4,192.4c3.5,3.2,7.1,6.3,10.7,9.5"/>
    <path class="st0" d="M111.4,194.7c3.5,3.2,7,6.5,10.5,9.6"/>
    <path class="st0" d="M80.8,227.1c.8.7,1.5,1.3,2,2.2.5.9,1.4,1.9,2.6,1.9,1.1,0,1.7.9,1.7,1.5,0,1.4.9,1.8,1.8,2.1,1.4.4,2.3,1.3,3,2.6"/>
    <path class="st0" d="M119.7,206.6c-2.9-2.1-5-5-7.9-7.1-1-.7-1.8-1.8-2.7-2.8"/>
    <path class="st0" d="M76.2,239.9c1.5.6,2.6,1.7,3.5,3"/>
  </g>
  <g class="st2">
    <path class="st0" d="M269.2,231.7c-2.4.2-4.6,0-6.7-1.5-1.5-1-3.3-.9-4.7,0-1.6,1.1-2.5,2.7-1.7,4.9.7,2,.3,3.9-.6,5.9-1.2,2.6-.2,5.7,2.7,6.7,1.5.5,4.1-.4,5.3-2.5,1.6-2.8,4.1-4.3,7.2-5.1,2.4-.6,3.4-2.1,3.3-4.3,0-2.1-1.8-3.9-3.9-4-.3,0-.6,0-.9,0"/>
    <path class="st0" d="M292.3,214.7c.3-1.3-.4-2.5-1.1-3.3-1.5-1.6-1.7-3.3-1.7-5.3,0-2.7-1-3.9-3.5-4.7-1.4-.4-2.6.1-3.5.9-1.9,1.9-4,2.9-6.7,3.2-1.9.2-3.7,2.2-3.9,3.8-.2,2.3.7,4,2.8,4.7,1,.4,2.2.6,3.3.6,2.2-.1,4.1.7,5.6,2.3.6.6,1.2,1.1,1.9,1.6,1.5,1,2.9,1.3,4.6.4,1.6-.9,2.2-2.2,2.1-3.9"/>
    <path class="st0" d="M281.1,194c.3.1.3.5.3.7.8,2.5,2.3,3.2,4.4,1.9,2.1-1.3,3.1-4.3,2.3-6.7-.8-2.3-2.7-2.8-4.6-1.2-1.6,1.3-2,3.2-2.5,5.1"/>
    <path class="st0" d="M261.8,222.6c-.5,0-.7-.2-.7-.7-.1-2.4-1.6-3.8-3.5-4.9-.8-.5-1.7-.6-2.6,0-1.1.7-1.8,1.7-1.5,3,.3,1.9,1.2,3.6,2.9,4.7,2.4,1.5,4.3.7,4.9-2.1"/>
    <path class="st0" d="M298.3,202.6c-1.8.8-3.3,2.1-3.8,4-.3,1.2-.2,2.5,1,3.3,1,.7,2,.4,3-.2,1.6-1,3-2.1,3-4.2,0-2.3-.6-3-3-3"/>
    <path class="st0" d="M246.4,234.1c-2.9,1.4-2.8,3.9.2,6,1.8,1.3,3.5,1.4,4.6.4,1.1-1,1.1-2.8-.2-4.2-1.1-1.2-2.5-2.2-4.4-2.1"/>
    <path class="st0" d="M274.4,193.1c-2.7,2-3.4,5.7-1.4,7.7.8.8,1.7.8,2.6.5,1.3-.4,2.5-3.1,2.3-4.7-.3-2.3-1.4-3.3-3.3-3.5"/>
    <path class="st0" d="M294.4,191.4c-2.5,1.2-3.9,3.1-3.9,6,0,1.3.5,2.4,1.6,2.9,1,.5,2,.3,3-.5,1.9-1.4,3-4.1,2.5-6.2-.4-1.7-1.4-2.3-3-2.3"/>
    <path class="st0" d="M247.3,222.2c-2,1.2-2.3,2.1-1.6,4.4.4,1.4,1.1,2.6,2.5,3.4,1.1.7,2.1,1.5,3.5.7,1.3-.8,1.8-2.3,1.4-4-.6-2.1-3.3-5-5.6-4.4"/>
    <path class="st0" d="M266.9,219.4c-1.6.7-2.1,2.1-1.9,3.7.3,1.9,1.2,3.5,3,4.4,1,.5,2.8-.6,3.3-1.9,1-2.5-1.5-6.1-4.2-6.1"/>
  </g>
  <g>
    <path class="st1" d="M371.6,78c-4.2,1.9-8.5,2.6-13.1,2.7-42.8,1.5-85.6,1.3-128.5,1.2-33.2,0-66.4,1-99.6.9-18.6,0-37.6,1.5-56.4,1.5-9.3,0-18.3.3-27.6,1.1-18.2,1.6-31.4,19.1-32.8,35.9-3.3,40.6-2.2,81.2-1.5,121.9.5,27.5,1,55.1,2.1,82.6.4,9.5.5,19.5,2.5,28.8,5,22.7,21.1,33.4,50.8,32.6,46.8-1.3,93.5-1.6,140.3-.9,67.3,1,134.6,1.3,201.9,1,21.4,0,42.9-1.2,64.2-2.9,23.8-1.9,32.4-13.7,34.1-36.3,2.2-30.1,1.8-60.3,1.1-90.5-.6-28.4.9-56.8-1.2-85.3-1-13.8.2-28.7.2-43.2,0-39.6-22.6-46.5-52.5-46.5-15.8,0-31.5,2.3-47.2-1.9-6.8-1.8-13.8,1.6-20.9,1.3-8.9-.3-14.8-2.7-18.6-11.9-7.3-17.9-19.3-33.5-27.5-51.1-2.4-5.3-7.9-6.9-14.2-6.8-35,.3-69.9.3-104.9,0-6.2,0-11.3,1.1-14.4,6.7-10.5,18.8-20.5,37.8-31.4,56.4-.8,1.3,0,3.4,0,5.2"/>
    <path class="st1" d="M230,336.3c-5.4,4.3-11.5,5.3-18.4,5.4-55.5.7-111-2-166.5-1.7-8.7,0-17.5-1-26.2-1.1"/>
    <path class="st1" d="M323,336.3c4.9,6,11.7,5.2,18.4,5.3,54.6.9,109.2-1.9,163.9-1.3"/>
    <path class="st1" d="M191.9,175c-3.5-3-7.7-2.6-11.8-2.6-55.5.1-111-2.2-166.5-1.3"/>
    <path class="st1" d="M193.3,176.4c-1.4,9.1-8.3,15.5-11.7,23.6-16.4,38.5-8.9,85.3,24.6,116.9,33,31.2,71.1,27.5,110.3,20.5,9.1-1.6,13.8-10.6,20.9-15.7,27.2-19.6,41.5-47,40.3-79.8-2.1-60.5-41.8-100.3-101.8-102-23.3-.7-44.6,6.6-63.1,21.9-6,4.9-11.4,11.3-19.5,13.3"/>
    <path class="st1" d="M505.3,172.4c-44.1,2.2-88.3,1.1-132.4,1.2-4.6,0-9.1.3-13.1,2.7"/>
    <path class="st1" d="M129,80.7c0-2.6.2-5.3,0-7.9-1-13.8-3-15.9-17-15.6-12.2.2-24.5.4-36.7.7-12.8.3-15.6,5.5-14.4,16.3.2,2.2,0,4.4,0,6.6"/>
    <path class="st1" d="M459.4,80.7c0-29.4,3.2-26.2-26.2-26.2-8.7,0-19.5-3.4-25.6,1.4-5.5,4.3-.5,15.6-3.2,23.5"/>
    <path class="st1" d="M416.1,113.4c-5.3,4.2-9.1,21.1-6.6,28.8,2.8,8.3,9.6,6.5,15.7,6.5,9.2,0,18.4-.2,27.5,0,6.7.2,9.7-2.6,9.2-9.2-.1-1.7-.1.4,0-1.3q1.2-24.9-23.6-24.9h-21"/>
    <path class="st1" d="M260.1,175c-23.3,6.4-41.4,19.7-49.6,42.7-17.2,48.2,23,90.5,61.4,91.5,31.6.9,61.7-16.1,70.6-50.4,11.6-45.1-23.7-83.6-61.4-83.8-6.6,0-13.1,0-19.7,0"/>
  </g>
</svg>