<?xml version="1.0" encoding="UTF-8"?>
<svg id="Layer_1" xmlns="http://www.w3.org/2000/svg" version="1.1" viewBox="0 0 387.7 406.3">
  <!-- Generator: Adobe Illustrator 29.8.1, SVG Export Plug-In . SVG Version: 2.1.1 Build 2)  -->
  <defs>
    <style>
      .st0 {
        stroke-width: 2px;
      }

      .st0, .st1, .st2 {
        fill: none;
        stroke: #730e02;
        stroke-linecap: round;
        stroke-linejoin: round;
      }

      .st1 {
        stroke-width: 12.9px;
      }

      .st2 {
        stroke-width: 15px;
      }

      .st3 {
        display: none;
      }
    </style>
  </defs>
  <g class="st3">
    <path class="st0" d="M303.6,248.5c-2,1.8-4.6,2-7,2.4-4.5.7-9,.5-13.3-1-5.3-1.9-10-4.5-13.7-8.9-.6-.7-1-1.5-.4-2.5.6-1.1-.2-2.6.7-3.7"/>
    <path class="st0" d="M268.8,239.3c-1.3-.2-1.7-1.4-2.2-2.3-2.6-4.6-4.2-9.5-4-14.9.2-5.3,1.2-10.4,4-15.1,3.7-6.1,8.7-10.6,15.5-12.9,2.6-.9,5.2-1.9,8-1.8,2.8,0,5.6-.4,8.2.6,2.9,1.1,6,1.4,8.6,3.1,3.3,2.1,6.4,4.3,8.7,7.4,3.2,4.2,5.6,8.7,6.2,14.2.8,7.3-.5,14.1-4.4,20.3-.5.8-.9,1.6-1.9,1.8"/>
    <path class="st0" d="M281,248.4c2.3-2.5,5.1-2.9,8.4-2.3,2.8.5,5.6.5,8.4-.3.5-.1,1.1-.3,1.6.2,1.1,1.1,2.9,1,4.1,2.2.7.7,1.6.3,2.2,0,3.1-1.8,6.2-3.6,8.6-6.4.7-.8.8-1.7.8-2.8,0-2.1-.8-4.2.6-6.3,1.8-2.8,2.4-6.2,2.8-9.4.2-2,1.5-2.6,2.9-3.3"/>
    <path class="st0" d="M263.1,219.8c2.3.8,3.3,2.4,3.6,4.9.3,3,1.4,5.8,2.6,8.6.4,1,1.1,1.3,2.1,1.6,2.8.9,5.5,1.6,8.4,1.9"/>
    <path class="st0" d="M302.4,216.1c-1.1,3.3-2.1,6.7-3.1,10-.5,1.4-1.1,2-2.7,2-3.5-.2-7,.3-10.5-.6"/>
    <path class="st0" d="M300.8,196.8c-2.5,1.3-5.3,1.9-7.9,3.2-1.2.6-2.1-.3-2.9-.6-2-.8-4.1-1.3-6-2.2-1.3-.6-2.5.4-3.5.9-3.1,1.7-6,3.6-8.3,6.4-1.1,1.3-2.7.7-4.2.7"/>
    <path class="st0" d="M300.3,194c.2,1.5.7,2.7,2.3,3.4,3.5,1.6,6.7,3.9,9.3,6.8,1.2,1.3,2.8.8,4.2.9"/>
    <path class="st0" d="M272.6,213.7c2.8.7,5.7,1.2,8.4,2,.8.3,1.2.5,1.4,1.3.9,3.4,1.8,6.8,3.3,10,.5,1-.2,1.6-.7,2.3-1.5,2-2.9,4.1-4.4,6.1-.7.9-.6,1.7,0,2.8,1.2,2.3,2.6,4.4,4.1,6.4.2.3.4.5.3.9"/>
    <path class="st0" d="M312,213.5c-2.9.9-6,1.3-8.9,2.3-.6.2-1.1.1-1.6-.3-2.4-2.3-5.5-3.8-8-5.8-1-.8-1.9-.7-2.6,0-2.9,2.2-6,4.1-8.8,6.5"/>
    <path class="st0" d="M314.5,234.9c-2.5.1-4.9,1.2-7.4,1.6-1.8.3-2.8,1.1-3.8,2.8-1,1.7-2.1,3.4-3.4,4.9-.5.5-.5,1.1-.7,1.6"/>
    <path class="st0" d="M298.6,228c2.1,2.9,4,6,6.1,8.9"/>
    <path class="st0" d="M292.2,200.3v8.4"/>
    <path class="st0" d="M312.7,205.3c-.4,2.6.1,5.3-.5,7.9,0,.4.1.5.3.7,2.1,2.3,3.8,4.9,6,7.2.1.2.2.2.4.2"/>
    <path class="st0" d="M271.6,205.4c.4,2,.3,4,.6,6,.2,1.5,0,2.8-1.3,4.1-1.8,1.8-3.1,4.1-4.8,6.1"/>
  </g>
  <g class="st3">
    <path class="st0" d="M11.5,248.7c0-.8,0-1.6.3-2.5,1.4-4.4,2.5-8.9,3.8-13.3.5-1.8,1.9-2.9,3.1-4.2,7.8-8.6,15.8-16.9,23.8-25.3,1.8-1.9,3.8-3.8,5.5-5.7,1.6-1.7,3-3.5,4.7-5.2,2.1-2.1,4-1.7,5.9-.2,1.8,1.4,3.5,2.9,4.9,4.7,1.7,2.2,1.6,3.8-.2,5.8-7.4,8.5-15,16.8-22.5,25.2-3.4,3.9-7,7.7-10.5,11.6-2,2.2-4.6,3.4-7.3,4.5-2.9,1.1-6,2-8.6,3.8-1.1.7-2.4.2-3.4,1.2"/>
    <path class="st0" d="M52.8,207.4c-6.9,7.2-13.4,14.8-20.1,22.1-2.4,2.6-4.8,5.1-7,7.9-.1.2-.2.3-.2.5"/>
    <path class="st0" d="M48.6,203.2c-6.1,6.7-12.3,13.3-18.4,20-3.1,3.4-6.1,6.9-9.3,10.2"/>
    <path class="st0" d="M50.4,195.8c3.5,3.2,7.1,6.3,10.7,9.5"/>
    <path class="st0" d="M48.5,198.1c3.5,3.2,7,6.5,10.5,9.6"/>
    <path class="st0" d="M17.8,230.5c.8.7,1.5,1.3,2,2.2.5.9,1.4,1.9,2.6,1.9,1.1,0,1.7.9,1.7,1.5,0,1.4.9,1.8,1.8,2.1,1.4.4,2.3,1.3,3,2.6"/>
    <path class="st0" d="M56.7,210c-2.9-2.1-5-5-7.9-7.1-1-.7-1.8-1.8-2.7-2.8"/>
    <path class="st0" d="M13.2,243.3c1.5.6,2.6,1.7,3.5,3"/>
  </g>
  <g>
    <path class="st1" d="M170,294.1c-15.5,1.2-29.9-.6-43.2-10-9.5-6.7-21.2-6.1-30.2.2-10.4,7.1-15.9,17.4-10.7,31.5,4.7,12.8,2.2,25.2-3.9,38.1-7.9,16.6-1.6,36.9,17.7,43.6,9.8,3.4,26.4-2.8,34-16.1,10.5-18.2,26.3-28,46.5-33.1,15.6-3.9,21.7-13.3,21.6-28.1,0-13.6-11.3-25.3-24.9-26.1-1.9-.1-3.9.6-5.7-.6"/>
    <path class="st1" d="M319.7,184.1c2.1-8.6-2.4-16.3-7.2-21.2-9.9-10.1-11.3-21.5-11.1-34.4.2-17.2-6.5-25.5-22.5-30.7-8.9-2.9-17.1.7-22.4,6-12.3,12.4-26.1,18.9-43.4,20.4-12,1-23.9,14.3-25,24.6-1.5,14.6,4.5,25.6,18.2,30.4,6.7,2.3,14.1,4,21.5,3.6,14.5-.9,26.4,4.4,36.3,14.8,3.7,4,8,7.2,12.5,10.2,9.5,6.2,18.6,8.5,29.6,2.5,10.6-5.8,14.2-14,13.5-25.2"/>
    <path class="st1" d="M247.1,50.3c2.1.8,1.6,3.3,2,4.6,4.9,16.4,14.7,20.8,28.6,12.4,13.4-8.2,20.1-27.7,14.7-43.1-5.1-14.7-17.6-18-29.5-8-10.2,8.6-12.9,20.8-15.9,32.9"/>
    <path class="st1" d="M122.4,235.1c-3.4.3-4.4-1.1-4.6-4.5-.9-15.2-10.6-24.4-22.6-31.7-5.5-3.3-11.1-3.9-17-.1-7.3,4.6-11.3,11.1-9.9,19.3,2.1,12.5,7.7,23.6,19.1,30.7,15.6,9.7,27.8,4.5,31.8-13.6"/>
    <path class="st1" d="M358.3,105.9c-11.8,5.3-21.4,13.4-24.6,26.2-1.9,7.6-1,16.2,6.6,21.4,6.4,4.4,13.2,2.6,19.2-1.1,10.1-6.3,19.3-13.5,19.4-27.1,0-14.9-4-19.1-19.3-19.3"/>
    <path class="st1" d="M22.6,309.9c-18.6,9.1-18.1,25,1.1,38.6,11.9,8.4,22.3,9.2,29.5,2.3,7-6.8,7.2-18-1.3-27.1-7.4-7.9-16.2-14.5-28.2-13.8"/>
    <path class="st1" d="M204.1,44.6c-17.7,12.7-21.9,36.8-9.2,50,5.3,5.5,10.8,5.1,17.1,3.3,8.7-2.4,16.3-19.8,14.7-30.7-2.2-14.6-9-21.6-21.5-22.7"/>
    <path class="st1" d="M333.3,33.3c-16.4,7.6-25.4,19.8-25.1,38.6.1,8.7,3.2,15.4,10.5,19,6.5,3.2,12.8,1.7,19.3-3,12.4-8.9,19.3-26.4,16-40-2.7-11-9.2-14.8-19.5-14.7"/>
    <path class="st1" d="M28.3,232.8c-12.9,7.7-14.7,13.7-10.3,28.4,2.8,9.3,7.3,16.5,15.9,21.7,7.4,4.4,13.9,9.9,22.8,4.3,8.5-5.3,12-14.7,9-26-3.6-13.8-21.6-32-36.2-28.4"/>
    <path class="st1" d="M155.3,214.7c-10.1,4.8-13.7,13.6-12.2,23.8,1.7,12.1,7.6,22.5,19.1,28.3,6.6,3.3,18.1-3.7,21.5-12.4,6.2-15.9-10-39.5-27.2-39.7"/>
  </g>
  <g class="st3">
    <path class="st2" d="M308.6,81.4c-4.2,1.9-8.5,2.6-13.1,2.7-42.8,1.5-85.6,1.3-128.5,1.2-33.2,0-66.4,1-99.6.9-18.6,0-37.6,1.5-56.4,1.5-9.3,0-18.3.3-27.6,1.1-18.2,1.6-31.4,19.1-32.8,35.9-3.3,40.6-2.2,81.2-1.5,121.9.5,27.5,1,55.1,2.1,82.6.4,9.5.5,19.5,2.5,28.8,5,22.7,21.1,33.4,50.8,32.6,46.8-1.3,93.5-1.6,140.3-.9,67.3,1,134.6,1.3,201.9,1,21.4,0,42.9-1.2,64.2-2.9,23.8-1.9,32.4-13.7,34.1-36.3,2.2-30.1,1.8-60.3,1.1-90.5-.6-28.4.9-56.8-1.2-85.3-1-13.8.2-28.7.2-43.2,0-39.6-22.6-46.5-52.5-46.5-15.8,0-31.5,2.3-47.2-1.9-6.8-1.8-13.8,1.6-20.9,1.3-8.9-.3-14.8-2.7-18.6-11.9-7.3-17.9-19.3-33.5-27.5-51.1-2.4-5.3-7.9-6.9-14.2-6.8-35,.3-69.9.3-104.9,0-6.2,0-11.3,1.1-14.4,6.7-10.5,18.8-20.5,37.8-31.4,56.4-.8,1.3,0,3.4,0,5.2"/>
    <path class="st2" d="M167,339.7c-5.4,4.3-11.5,5.3-18.4,5.4-55.5.7-111-2-166.5-1.7-8.7,0-17.5-1-26.2-1.1"/>
    <path class="st2" d="M260.1,339.7c4.9,6,11.7,5.2,18.4,5.3,54.6.9,109.2-1.9,163.9-1.3"/>
    <path class="st2" d="M129,178.4c-3.5-3-7.7-2.6-11.8-2.6-55.5.1-111-2.2-166.5-1.3"/>
    <path class="st2" d="M130.3,179.7c-1.4,9.1-8.3,15.5-11.7,23.6-16.4,38.5-8.9,85.3,24.6,116.9,33,31.2,71.1,27.5,110.3,20.5,9.1-1.6,13.8-10.6,20.9-15.7,27.2-19.6,41.5-47,40.3-79.8-2.1-60.5-41.8-100.3-101.8-102-23.3-.7-44.6,6.6-63.1,21.9-6,4.9-11.4,11.3-19.5,13.3"/>
    <path class="st2" d="M442.3,175.8c-44.1,2.2-88.3,1.1-132.4,1.2-4.6,0-9.1.3-13.1,2.7"/>
    <path class="st2" d="M66.1,84c0-2.6.2-5.3,0-7.9-1-13.8-3-15.9-17-15.6-12.2.2-24.5.4-36.7.7-12.8.3-15.6,5.5-14.4,16.3.2,2.2,0,4.4,0,6.6"/>
    <path class="st2" d="M396.4,84c0-29.4,3.2-26.2-26.2-26.2-8.7,0-19.5-3.4-25.6,1.4-5.5,4.3-.5,15.6-3.2,23.5"/>
    <path class="st2" d="M353.2,116.8c-5.3,4.2-9.1,21.1-6.6,28.8,2.8,8.3,9.6,6.5,15.7,6.5,9.2,0,18.4-.2,27.5,0,6.7.2,9.7-2.6,9.2-9.2-.1-1.7-.1.4,0-1.3q1.2-24.9-23.6-24.9h-21"/>
    <path class="st2" d="M197.1,178.4c-23.3,6.4-41.4,19.7-49.6,42.7-17.2,48.2,23,90.5,61.4,91.5,31.6.9,61.7-16.1,70.6-50.4,11.6-45.1-23.7-83.6-61.4-83.8-6.6,0-13.1,0-19.7,0"/>
  </g>
</svg>