<svg xmlns="http://www.w3.org/2000/svg" version="1.1" xmlns:xlink="http://www.w3.org/1999/xlink" xmlns:svgjs="http://svgjs.dev/svgjs" width="1000" height="1000"><g clip-path="url(#SvgjsClipPath1059)"><rect width="1000" height="1000" fill="#ffffff"></rect><g transform="matrix(2.0325203252032518,0,0,2.0325203252032518,50.000000000000085,163.51626016260167)"><svg xmlns="http://www.w3.org/2000/svg" version="1.1" xmlns:xlink="http://www.w3.org/1999/xlink" xmlns:svgjs="http://svgjs.dev/svgjs" width="442.8" height="331.1"><svg xmlns="http://www.w3.org/2000/svg" version="1.1" viewBox="0 0 442.8 331.1">
  <defs>
    <style>
      .cls-1 {
        fill: #e4c3b1;
      }

      .cls-2 {
        fill: #9e7764;
      }

      .cls-3 {
        fill: #e5bcb0;
      }

      .cls-4 {
        fill: #563d31;
      }

      .cls-5 {
        fill: #634536;
      }

      .cls-6 {
        fill: #edc0ab;
      }

      .cls-7 {
        fill: #725040;
      }

      .cls-8 {
        fill: #635c59;
      }

      .cls-9 {
        fill: #c7cdd2;
      }

      .cls-10 {
        fill: #621627;
      }

      .cls-11 {
        fill: #44362e;
      }

      .cls-12 {
        fill: #1c2c34;
      }

      .cls-13 {
        fill: #8e6554;
      }

      .cls-14 {
        fill: #e9c0ac;
      }

      .cls-15 {
        fill: #dfc1ba;
      }

      .cls-16 {
        fill: #e6c2af;
      }

      .cls-17 {
        fill: #7a5c4b;
      }

      .cls-18 {
        fill: #503b31;
      }

      .cls-19 {
        fill: #966f5e;
      }

      .cls-20 {
        fill: #5b4a3e;
      }

      .cls-21 {
        fill: #674839;
      }

      .cls-22 {
        fill: #b5afab;
      }

      .cls-23 {
        fill: #ecbfab;
      }
    </style>
  <clipPath id="SvgjsClipPath1059"><rect width="1000" height="1000" x="0" y="0" rx="500" ry="500"></rect></clipPath></defs>
  <!-- Generator: Adobe Illustrator 28.7.6, SVG Export Plug-In . SVG Version: 1.2.0 Build 188)  -->
  <g>
    <g id="Layer_1">
      <g>
        <path class="cls-10" d="M174.2,116.9c0-20.3,0-40.6,0-60.9,0-7.9-.2-15.8-1.8-23.5-3.3-15.1-10.9-22.1-26-24-4.2-.5-8.5-.6-12.8.3-7.4,1.6-12.3,9.6-10.3,16.9.9,3.2,4.3,5,7.3,3.3,2.6-1.5,5-2.1,7.3,0,2.2,1.9,2.5,4.7,1.7,7.4-.9,3.2-3.3,4.8-6.5,5.2-4.9.5-8.1-2.3-10.5-6.1-8.2-13,0-29.5,15.2-30.4,7.6-.4,15.2-.1,22.8-.1,36.1,0,72.1,0,108.2.1,17.2,0,34.6.4,51.2,5.8,30.6,9.9,52.1,28.9,58.8,61.6,6.4,31.3-9.4,65.7-36.6,82.4-14.8,9.1-31.2,13-47.8,16.4-3.9.8-7.8,1.7-12.7,1.5,3,4.2,5.5,7.7,8,11.3,25.8,36.7,51.6,73.4,77.5,110,7.3,10.3,15.1,20.3,26.9,25.7,14.9,6.8,36.9,2.1,40.8-20,2.2-12.6-7-23.4-19.2-23.1-2.2,0-4.3.4-6.2,1.5-4.5,2.5-4.9,5.9-.8,9.1,2.9,2.2,5.2,4.4,3.3,8.3-1.4,2.9-4.2,3.1-6.9,2.7-3.7-.5-6.4-3.7-6.6-7.5-.5-8.4,7-16,16.2-16.5,17.2-.8,28.2,15.8,21.2,32.1-4.8,11.1-13.5,17.4-25.4,19-13.7,1.8-27.5,1.1-41-1.6-14.1-2.9-24.8-11.3-34.2-21.8-11.7-13.1-20.7-28.2-30.6-42.6-17.5-25.5-35.4-50.9-53.1-76.2-3.1-4.4-6.4-6.9-12.1-6.1-5.4.7-10.9-.4-16.3-1.5,0-1.7,1.5-1.6,2.5-2,5.2,0,10.3.6,15.5.7,11.6.2,22.8-1.4,33.8-5,1.4-.5,2.8-.9,4.3-1,2.9.2,5.7,2.6,8.8.8,6.4-2.8,12.5-5.9,16.6-11.9,1-1.5,2.4-3,4.6-2.6.9.5,1,1.3.8,2.2-.2.8-.7,1.4-1.3,2.1,17.9-7.6,27.6-22.2,32.2-39.8,8-30.5,2.9-59.1-16.7-84.3-8.1-10.5-19.2-16.7-31.9-20.1-10.1-2.7-20.4-4-30.8-4.1-14.8-.1-29.6,0-44.4,0-1.8,0-3.8-.5-5.3,1-1.2,1.5-1.2,3.2-1.2,5,0,28.4-.3,56.8.2,85.1.1,6.6-.3,13.2-.3,19.8,0,3.6.5,7.2,1.8,10.5.2.4.4.9.5,1.3-.2,1.5-1.4,1.7-2.5,1.9-1.2.2-2.4,0-3.5-.3-11-3.6-22.1-6.7-32.1-12.7-1.3-.8-2.9-1.4-3.3-3.2,0-2,2.1-.9,2.7-2Z"></path>
        <path class="cls-10" d="M214.3,172.4c-3.5-1-4.2,0-4.2,3.8.4,31.6.4,63.3.6,94.9,0,8.7.2,17.4,3.2,25.7,4.7,13.4,14,20.7,28.3,21.4,2.1.1,4.3,0,6.4.2,1.3.1,3.3-.8,3.4,1.6,0,2.4-2,1.6-3.3,1.6-4.7.1-9.3.1-14,.1-32.7,0-65.4,0-98.1-.3-1.7,0-5,1.1-5-1.5,0-2.9,3.2-1.4,4.9-1.5,5.6-.4,11.2-.3,16.7-1.7,8.6-2.2,14.1-7.6,17.2-15.8,2.7-7.4,3.6-15.1,3.6-22.8.1-25.9.1-51.8.2-77.7,0-2.1.2-4.3.2-6.4,1.5-2.3-1.6-3.1-1.6-4.9.4-3.7,3.4-5.9,5.5-8.5,3.2-3.9,6.4-7.8,10-11.3.7-1.1,1.7-1.9,3-1.7,5.7,1.2,11.4-1.3,17.1-.3,1.9.6,3.9,1,5.8,1.8,1,.7,2.5,1.1,2.1,2.8-.3.9-1.1,1-1.8.5Z"></path>
        <path class="cls-11" d="M209,168.5c-6-1.1-12,1.8-18,.1-1.6-.4-1.4,1.7-2.6,2-7.5-4.8-13.1-1.8-17.9,4.4-.6.1-1.1,0-1.5-.5-.2-.3-.3-.7-.4-1.1,0-1.1-.1-2.2.2-3.3.4-1.1,1.1-1.8,1.9-2.5,2.9-2.7,2.7-2.3-.9-4.4-6.6-4-12.5-3.5-19.4,0-26.9,13.3-49.5,31-62.9,58.6-.5,1.1-1,2.2-1.5,3.3-.7,1.7-.3,2.8,1.6,3.2,5.7,1.4,10,4.9,14,8.9,9.6,9.5,19.4,18.7,30.9,26,5,3.2,9.9,6.5,16.2,3.5.6.3,1,.7.7,1.4-.8,1.6-2.3,2.4-3.9,2.6-3.6.3-4,2.4-4.2,5.4-.5,8.5-2.6,16.6-7,24-.9,1.6-1.6,3.4-3.8,3.9-.9-1.7.6-2.5,1.2-3.5,5.4-8.2,7.2-17.4,8-26.9.4-3.9-3-3.6-5.4-5.8-.3,14.9-9.9,22.7-21,30.6,1-3.5,3.1-4.8,5.1-6.3,6-4.3,10.9-9.3,12.8-16.8,2.2-8.3,2.2-8.5-5.9-12.5-.9,2.9-1.6,5.9-2.7,8.7-2.5,6.7-6.8,12-12.6,16.2-1.7,1.3-3.6,2.4-4.9,4.1-.5.6-1,1.6-1.9.9-1.1-.8-.2-1.7.4-2.3,1.2-1.1,2.4-2.1,3.8-2.9,8.4-5.1,13.2-12.6,15-22.2.8-4-.7-6.8-4.2-8.3-2.1-.9-1.9.9-2.1,1.8-2.7,9.7-10,16.2-15.9,23.7-.2.3-.7.3-2.1.8,2.3-4.3,4.9-7.4,7.6-10.4,3-3.4,5.8-6.9,7.5-11.2,2.7-7,2.8-7-3.3-11.9-2.6,8.8-5.4,17.4-9.9,25.3-1.3,2.2-2.9,4.2-3.9,6.5-1.1,2.9-3.1,3.7-6.1,3.6,9.7-9.3,13.8-21.3,17.5-33.5.9-3-1.2-6.9-4-8-1.8-.7-1.6,1-2,1.7-3.6,7.5-9.2,13.1-16.7,16.7-.8.4-1.7.8-2.6,1.1-.3.1-.7-.1-1.1-.2.2-1.8,1.7-1.9,2.9-2.4,7.2-3.3,12.2-8.8,16-15.7,1.3-2.3,1.2-3.9-.7-5.5-.6-.5-1.2-1.1-1.7-1.7-3.9-3.6-3.8-3.5-6.4,1-5.1,8.9-13.1,15-21.1,21-4.1,3.1-8.5,5.8-13.4,9.1,1.5-3.2,2.5-4.4,6.9-7.1,7-4.3,13.2-9.5,18.9-15.3,2.8-2.8,5.5-5.9,7.2-9.5.7-1.4,3.1-3,.5-4.7-2.3-1.5-5-2-7.4.1-.4.3-.6.9-.9,1.3-3.5,6.3-8.3,11.1-15.1,13.7-2.7,1-4,3.8-6.5,5.1.9-3.8,3.7-6,7.1-7.5,5.3-2.3,9.1-6,11.9-10.9.5-.8,1-1.6,1.3-2.5,9.2-28.9,29.3-48.4,54.5-63.6,7-4.2,14.3-7.8,22.5-11.1-15.4-6.6-27.4-17-40-26.6-5.6-4.3-11.2-4.9-17.6-2.8-8,2.6-15.1,6.8-22.1,11.1-4.9,3-9.6,6.3-15.5,7.1-8.6,1-16-1.5-22.6-7.1-3-2.6-5.9-5.5-9.3-7.5-7.8-4.7-16.1-7-25.2-3.3.6-2.4.6-2.4,2.8-2.8,5.9-1.1,11.7-.3,17.3,1.9,1.1.4,2.3.7,3.4,1.2,1.2.6,2,.4,2.7-.8.7-1.2-.4-1.7-1.1-2.2-4.8-3.8-10.5-4.9-16.5-5.4-1.4-.1-3.7,1.2-4.1-1.6h0c7.6-.4,14.9.3,21.3,5.1,1.1.8,2,.8,2.3-.7.4-1.7,3.1-3.9.7-5-4.2-1.9-8-4.7-12.5-6.3-3.8-1.3-7.5,0-11.3,0,4.3-2.5,8.8-2.9,13.3-.8,3.3,1.5,6.5,3.1,9.7,4.7,1.6.8,2.9.9,3.1-1.3.1-1.6,2.3-4-1.5-4.4-1.2-.1-2.3-.6-3.4-.9.3-1.9,1.5-1,2.5-.9,4.4.1,5.1-.8,6.1-7.9-.5-1.3-.7-2.8-2.8-2.4-2.4.4-4.6-.6-6.6-1.8-1.3-1-3.1-1.8-2.2-4.7,5,6,10.2,3.5,15.8,1.1,10.7-4.6,21.4-9,32.3-12.9,13.2-4.8,26.6-5.7,39.8.2,5.9,2.6,11.1,6.4,15.7,10.9,4.4,4.3,9.1,7.9,14.7,10.8,7.9,4.2,15,9.7,22.5,14.5,1.4.9,2.6,2.5,4.6,1.7-.3,1.2-1.8.8-2.3,1.8-2,.9-3.3-.5-4.7-1.4-6.7-4.4-13.2-9.1-19.6-13.4,1.9,3.5,6.3,5.3,7.7,9.5-.2.6-.7.9-1.3,1-3.6-1.1-5.9-4-8.4-6.5-6.8-7-13.2-14.4-21-20.3-11.6-8.8-24.6-11-38.7-8.1-6.8,1.4-13.4,3.7-19.7,6.7-5.3,2.5-10.7,4.9-16.3,6.6-3.1.9-4.8,2.9-5.8,6-2.9,9-5.1,18.3-8.8,27-1.1,2.5-.6,4.3,1.6,5.9,2.3,1.7,4.2,3.7,6.5,5.4,9.2,6.7,18.7,7,28.5,1.5,6.3-3.5,12.1-7.9,18.7-10.7,5.4-2.3,10.8-4.6,16.8-4.8,2.6.1,5.2,0,7.8,0,.6,0,1.2.2,1.7.5,1.5.8-.3,1.8.2,2.7,6.8,3.8,12.4,9.2,18.7,13.8,8.3,6.1,17,11.5,26.7,15.1,5,1.9,9.8,4.3,14.6,6.6,7.3,3.5,14.8,6,23.1,4.5,2.2-.4,4.5-.2,6.8,0,1,.2,2.1.3,2.7,1.4.1.5,0,.8-.6.7Z"></path>
        <path class="cls-4" d="M209.5,168.4c-.7-.9-1.7-.8-2.7-1,.6-2,2.4-1.8,3.9-2.2,33.2-8.5,64.9-18.3,92.5-36-.7,0-1.3-.4-1.7-.9.5-2.5,2.6-1.9,4.2-2.3,7.3,2.1,9.7,8.2,11.3,14.6,1.5,5.8-.5,10.7-4.7,14.9-.7.7-1.6,1.5-2.8.6-.3-.5-.6-.9-.9-1.4-.4-2,1.2-3.1,2.2-4.5,1.3-2,2.6-4,2.1-6.9-8.2,9.6-15.9,19.1-26.9,25.6,1.1,0,2.1.2,2.7,1-3.1,1.9-5.9.8-8.7-.8,0-2.1,1.9-2.3,3.3-3,11.3-5.9,18.6-15.8,25.9-25.7.7-.9,1.3-2.1.8-3.7-26.4,20.2-56.1,31.8-88.4,35.6.9.6,3.5-.2,4.1,2.3-.8.3-1.8,0-2.5.8-3.1-.6-6.2-1.4-8.9-3.1,3-1.8-1-1.4-.7-2.4,1.7-1.8,4.2-1.8,6.3-2,24.3-2.2,46.9-9.9,68.2-21.6,6.9-3.8,13.2-8.4,18.7-14.1-4.5,2.5-8.9,5.1-13.4,7.7-9.5,5.5-19.4,10.1-29.8,13.6-15.2,5.2-30.2,10.8-45.8,14.6-2.8.7-5.5.8-8.3.2Z"></path>
        <path class="cls-20" d="M149.5,267.9c-.3-.3-.6-.6-.8-.9-.4-.6-.5-1.2-.4-1.9,3.1-16.4,5.2-33.1,10.4-49.1,2.6-8.1,5.9-16,10.2-23.3,1-1.7,1.9-3.6,4.3-3.6.7,1.6,2.8,2.9,1.1,5-.2-.7-.3-1.5-.6-2.8-3.3,4.2-5.1,8.6-7,12.9-7.5,16.7-11,34.4-13.3,52.4-.5,4-.6,8.3-3.8,11.4Z"></path>
        <path class="cls-11" d="M10,117.8c-.5,0-1.6,1.4-1.5-.3,0-1,1.2-2.1,2.3-2.5,5.6-1.8,11.1-1.9,16.3,1.4-5.9-.7-11.8-2.2-17.3,1.4,0,0,0,0,0,0Z"></path>
        <path class="cls-8" d="M34.2,107.3c-.9.3-1.9-.1-2.5.9-4.9-1.8-9.5-4.2-14.3-6.2,6.3-.2,11.3,3.3,16.8,5.4Z"></path>
        <path class="cls-22" d="M30.9,95.3c2.1.3,4.5,1.2,6.3.6,4.6-1.5,4.6.2,3.2,3.5-3.2-1.3-7.3-.5-9.4-4.2Z"></path>
        <path class="cls-6" d="M155,113.1c-4-3.5-7.6-7.3-10.5-11.9,9.8,4.7,17.9,12.2,27.3,17.5,11.7,7.6,24.8,11.8,38.2,15.4,7.7.2,15.2,2.1,22.8,2.3,1.6,0,3,.7,3.1,2.5.1,1.6-1.4,1.6-2.5,2.1-1.9.8-3.9.6-5.9.6-1.6,0-3.1-.3-4.6-.8-1.3-.7-2.8-.9-4.3-.8-14.7,1.4-28.7-1.7-42.6-6.4-17.5-5.9-32.6-16.1-44.2-23.7,19.8,14.1,44.4,27.7,73.7,30.3,4.2.3,8.4.4,12.5,0,1.1,0,2.3-.3,3.3.3,0,2.4-1.8,2.5-3.6,2.8-20.2,3.5-39.9,1.2-59.1-5.9-12.7-4.7-25.5-9.1-38.9-11.7-1.1-.2-2.1-.3-2.8-1.2-.5,0-1,0-1.5,0-3-.5-6-.5-9,0-8.7,1.3-16.6,4.8-24.1,9.3-4.5,2.7-8.9,5.5-13.5,7.8-8.2,4.2-16.3,3.3-24-1.4-4-2.4-7.4-5.7-10.9-8.7-1.5-1.3-1.5-2.5-.8-4.2,4.1-9.4,6.5-19.4,9.5-29.3.7-2.2,1.4-4.4,3.9-5.2,11.1-3.4,21.3-9.3,32.4-12.8,20.4-6.4,38.1-2.2,53.4,12.7,7.3,7.1,13.5,15.2,21.5,21.5,1.7.5,3,1.7,4.1,2.8-.9-1.3-2.9-1.9-3.3-3.7Z"></path>
        <path class="cls-14" d="M225.7,174.7c-2.6-1.2-5.8-.9-8.3-2.7.9-1.2,2.2-.9,3.4-1,32.8-3.7,62.7-14.6,88.3-35.9.6-.5,1.1-1.4,2-.5.9.9,1.4,2.1.9,3.3-.8,1.8-1.7,3.7-2.9,5.2-8.1,10.5-16.4,20.8-29.1,26.1-17.6,6.5-35.8,7.6-54.3,5.6Z"></path>
        <path class="cls-1" d="M288.8,169.9c-1.5,0-2.9,0-4.4,0-.2,0-.4-.2-1.1-.6,12.5-7.3,21.9-17.7,30.2-29.1,2.5,4.6,1.5,7.7-4.7,14.5-2.1,1.6-3.8,3.5-5.3,5.7-3.6,5.1-9.3,7.1-14.7,9.5Z"></path>
        <path class="cls-18" d="M227.1,140.4c2.8-.3,5.8,0,8.4-1.3-.7-2.2-2.6-1.9-4.2-2.1-7.1-.8-14.4-.6-21.3-2.9,1-.3,2.1-.1,2.8-1.1,5.9.8,11.8,1.5,17.7,2.4,2.6.4,4.7.4,5-3.1.1-1.3,1-2.8,2.6-3.3.8-.3,1.6-.1,2.3.3,5,5,10.7,8.3,18.2,7.1.9.5,2.3.6,2.2,2.2-.8,1.3-2.1,1.6-3.4,1.8-10,1.3-20,2.7-30.1,3-1.3-.4-3-.1-3.5-1.9.8-1.2,2.3-.3,3.2-1Z"></path>
        <path class="cls-18" d="M211.1,8.9c-.2,1.2-.5,2.3-.5,3.5,0,38.8.2,77.5.3,116.3,0,1.7-.3,3.6,2,4.2-1.7.3-2.4-.4-2.6-2.1-.7-6.5-1.3-13-.1-19.5.6-3.2-.6-6.3-.6-9.6,0-29.5,0-59,0-88.6,0-1.5-1.1-3.7,1.5-4.3Z"></path>
        <path class="cls-23" d="M173.3,189c-6.7,8.2-10.1,18.1-13.3,27.9-4.4,13.6-7.1,27.6-8.7,41.8-.3,3-1.2,5.7-2.5,8.3-3.7,3.7-7.6,2.4-11.4.3-10.4-5.7-19.3-13.2-28-21.2-5.1-4.7-9.6-10-15.4-13.9-2.4-1.6-4.8-3-7.7-3-2.9,0-2.6-1.2-1.8-3.2,7.2-16.5,17.5-30.8,31.5-42.3,12.6-10.3,26.4-18.5,41.3-25,1.9-.8,3.5-.9,5.3,0,3.6,1.7,7.3,3.3,11,4.8,2.3.9,2.2,1.9.4,3.3-1.6,1.2-3,2.6-4.6,3.9-.6,1.5-2,2-3.2,2.8-12.9,8.9-25.1,18.6-31.8,33.4-2.9,7.5-2.9,15.3-2.1,23.2-.6-7.7-1-15.3,2-22.6,3.1-8.5,9-15,15.4-21.1,4.7-4.5,9.9-8.5,15.3-12.1,1.3-.9,2.7-2.4,4.6-1.2-.1.2-.2.4-.2.7-1.2,4.9-4.8,8.4-6.9,12.8-2.3,4.8-4.8,9.4-6.9,14.2-2.8,6-4.2,12.4-5.1,18.9.8-6.1,2-12.1,4.5-17.7,3.8-8.7,8-17.1,13.2-25,.6-.9.9-1.9,2.1-2.3.8-1,1.6-2.1,2.4-3.1,4.7-5.9,8.8-6.6,15.3-2.5.3.2.4.9.6,1.4-5.3,5.9-10.8,11.7-15.2,18.3Z"></path>
        <path class="cls-16" d="M209.5,168.4c18.9-3.1,36.6-10.4,54.7-16.5,15-5,29-12.3,41.8-21.5.9-.7,1.5-1.4,2.6-.1,1,1.3,1.1,2.2-.3,3.3-6.2,4.9-12.3,9.8-19.2,13.7-23.5,13.2-48.7,20.8-75.6,22.7-1.4-.9-3.3-.3-4.5-1.6.2.1.4.1.5,0Z"></path>
        <path class="cls-23" d="M227.3,142c11.3-1,22.6-1.6,33.8-4,1-1.6,2.7-1.5,4.3-1.7,10.7-1.5,21.1-4.5,31.4-7.9,1.6-.5,3.2-1.5,4.9-.3h4c-1.1,2.3-3.2,3.1-4.9,4.1-20.9,13-43.9,21.1-67.3,28.2-8.8,2.7-17.6,5.2-26.7,6.9-12.3,1.9-23.4-1.2-34.7-6.2-18.2-7.9-35.2-17.5-50.4-30.3-2-1.7-4.4-2.9-6.7-4.4,1.6-2.3,4-1.6,5.9-1.3,9.6,1.6,18.8,4.7,28,7.8,10.7,3.7,21.2,8,32.4,9.9,13.4,2.2,26.8,1.9,40.1-.9,2-.4,3.9,1,5.9,0Z"></path>
        <path class="cls-17" d="M227.3,142c-22.3,4.9-44.3,4.7-66-3.6-10.7-4.1-21.4-8.2-32.6-10.7-4.4-1-8.9-2.9-13.6-1.2-.4-.3-1-.5-1.1-.8-.2-.7.5-.7,1-.7.9,0,1.8,0,2.4-.7,9,0,17.2,3.5,25.6,6,12,3.6,23.5,8.8,35.8,11.3,13.5,2.8,27,2.3,40.6.2.8-.1,1.5-.4,2-1.2.3-.9,1.4-.4,1.9-.9,1.3.3,2.7.6,4,.8-.8.4-1.5.8-2.6,1.3,1.1.1,1.9.2,2.7.4Z"></path>
        <path class="cls-5" d="M134.1,206c1.1-4.2,3.7-7.7,6.3-11,8-10,17.9-17.8,28.9-24.4.2.8,1.3,1.6.1,2.5-1.5-.2-2.5.7-3.6,1.5-12.5,8.6-24.1,18.1-30.9,32.2-.7.2-1.1,0-.9-.9Z"></path>
        <path class="cls-5" d="M170.2,174.8c-5.1,8.9-10.5,17.7-14.4,27.2-1.4,0-1.3-.7-.8-1.6,3.9-9.4,8.4-18.4,14.4-26.6.3.3.6.7.9,1Z"></path>
        <path class="cls-13" d="M155,113.1c2.1,1.6,4.1,3.3,6.2,4.9-3.1-.2-5.2-1.9-7.1-4,.3-.3.6-.6.9-.9Z"></path>
        <path class="cls-17" d="M106.8,124.2c3-.9,6-.9,9,0-3,0-6,0-9,0Z"></path>
        <path class="cls-12" d="M301.7,128.1c-13.2,4.8-26.5,8.8-40.6,9.9-.9-.3-1.9,0-2.6-.9.3-.5,1.1-.6,1.2-.8.2-.6-.6-.4-.9-.5-2.8-1.1-5.5-2.6-8-4.4-2.2-2.7-5.5-4.5-6.8-8-.8-.2-1.5-.5-2.3-.7-.9.1-2.1,1.1-2.4-.8,1.5-.4,3.8-.2,3.8-2,0-2.2-2.3-2.6-4.3-2.6-6.4,0-12.7,0-19.6,0,4.3-1,8.4-1.2,12.4-1.5,2.6-.2,6.1.7,7.7-.7,1.6-1.3-.9-4.4-1.2-6.9-.3-3-.5-6.1,1.1-8.6,2-3.3,1.6-6.4.8-9.8-1.3-5.2-1.9-10.5-1.9-15.9,0-4.3,1.5-5.4,5.5-3.6,5.4,2.4,9.9,6.3,14.6,9.8,2.3,1.7,4.3,2.5,7.3,1.9,6.4-1.2,13-1.6,19.4.3,1.9.6,3-.4,4.3-1.4,4.5-3.8,9.1-7.5,14.3-10.2,5.3-2.8,7.4-1.5,7.2,4.5-.3,6-1.3,11.9-3,17.7-.5,1.6-1,3-.2,4.6,2.6,4.9,2.6,10.1,1.3,15.2-.7,2.5.2,2.6,2.2,2.6,4.9,0,9.9,0,14.8.9,1.2.2,2.7,0,4.2,2-3.2-.3-5.7-.6-8.2-.8-4.3-.3-8.5-.7-12.8-.2-1.6.2-2.7,1.3-2.8,2.5-.1,1.7,1.8,1,2.7,1.5-.5,2.4-3,.2-3.8,1.6-1.1,1.5-.3,2.7.7,3.9-1,1.3-2.9.2-4,1.5Z"></path>
        <path class="cls-12" d="M305,122.8c.9-1.4,2.8-.6,3.8-1.6,6.4.3,13.9,2.9,18.4,6.9-7.9-2.5-14.6-6-22.2-5.3Z"></path>
        <path class="cls-12" d="M239.2,122c.8.3,1.6.5,2.4.8-6.8,2-13.6,3.8-20.3,6.1,5.5-3.6,11.3-6.4,17.9-6.9Z"></path>
        <path class="cls-12" d="M243.9,123.5c3,1.8,4.9,4.7,7.2,7.2-1.7,1.2-3.1,0-4.3-.9-2.5-2-4.7-1.8-7.1.1-.5-.3-1.1-.6-1.6-1,1.2-2.5,3.5-4,5.7-5.5Z"></path>
        <path class="cls-21" d="M53.4,122.2c13.9-10.9,29.5-16.7,47.2-17.1-8-4.5-16.7-5.8-25.7-6.1,16.8-2.8,30.4,5.8,44.5,12.9-24.3-10.6-45.4-1.8-66.1,10.3Z"></path>
        <path class="cls-7" d="M223.1,139.5c-.6.3-1.3.6-1.9.9-.8,0-1.7,0-2.5,0-4.5.5-9,.5-13.6,0-12.8,0-24.6-4.2-36.2-8.9-15.8-6.3-29.7-16.2-43.9-25.3-.4-.3-.8-.7-.5-1.6,2.1.3,3.8,1.7,5.5,2.8,13,8.6,25.9,17.4,40.6,23,14,5.4,28.2,9.4,43.4,8.8,3.1-.1,6.1.2,9.2.2Z"></path>
        <path class="cls-17" d="M205.1,140.4c4.5,0,9,0,13.6,0-4.5,1-9,.8-13.6,0Z"></path>
        <path class="cls-3" d="M239.8,129.9c1.7-4.3,2.5-4.5,5.9-2.2,1.7,1.1,3.3,2.5,5.4,3,3.5,1.9,7.1,3.7,11.2,5.9-1.8.3-2.9.4-4,.6-7.9,2-13.6-1.8-18.6-7.3Z"></path>
        <path class="cls-15" d="M248,138.4c-3.6.7-6.5,1.3-9.4-.4-1.4-.8-2.3-1.8-2.1-3.4,0-1.1-.4-2.6.9-3.2,1.3-.6,1.8.7,2.5,1.4,2.3,2.2,5,3.8,8.1,5.6Z"></path>
        <path class="cls-19" d="M134.1,206c.3.3.6.6.9.8-2.7,7.8-2.6,15.9-2.5,24-2-8.5-2.5-16.8,1.7-24.8Z"></path>
        <path class="cls-2" d="M154.9,200.3c.2.6.1,1.3.8,1.6-2.2,5.9-3.8,12-5.2,18.2-.7-7.1,1-13.6,4.3-19.8Z"></path>
        <path class="cls-9" d="M266.5,109.2c-5.1-2.9-12.3,2.6-15.9-6.3,4.1,2,7.1,2.9,10.9,1.4,2.3-.9,4.2,1.4,5,4.8Z"></path>
      </g>
      <path class="cls-9" d="M281.1,109.2c5.1-2.9,12.3,2.6,15.9-6.3-4.1,2-7.1,2.9-10.9,1.4-2.3-.9-4.2,1.4-5,4.8Z"></path>
    </g>
  </g>
</svg></svg></g></g></svg>