<?xml version="1.0" encoding="UTF-8"?>
<svg id="Layer_1" fill="#151a1d" xmlns="http://www.w3.org/2000/svg" version="1.1" viewBox="0 0 796.3 1117.1">
  <!-- Generator: Adobe Illustrator 29.5.1, SVG Export Plug-In . SVG Version: 2.1.0 Build 141)  -->
  <path d="M501.3,97.7c24.5,32.7,51.2,75.2,62.7,114.5,11.9,40.6,21,78.6,34.6,119.1,20.6,61.4,20.4,112.1,3.9,174.4-6.7,25.5-20.3,40.1-30.7,62-2.7,5.7-6.6,22.3-12.1,25l-1.4.3c-3.7-2.7-5.2-4.3-10-4.3-7.9,0-20.9,13.3-26.2,0-5.9,3-8.8,2-9.3,9.2-.8,10.3-1,20.7-1.8,30.9s-.7,15.2,3,20.4,12.4,4.4,19.2,7,18.9,10.4,28,14.5c18,8,37,10.9,53.6,22.7,68.8,48.7,130.4,173.5,147.6,254.7,7.7,36.1,10.2,71.7,12.1,107.9.5,9.4,5.2,38.5,2.5,44.9s-2.8,4.1-4,4.3l-4.4-1.8c0-5.3-2.9-10.2-3.5-15.1-1.1-9.1,1.3-24.2.8-34.6-2.2-51.7-13.1-114.7-30.8-163.3-22.2-60.7-73.8-151.3-126.3-188.8-16.1-11.5-34.3-15-51.5-23.6-8.2-4.1-16.5-10.8-24.4-15-14.9-7.9-4.9,6.1,2.8,6.5.4,1.2.2,2.4.1,3.7-.9,10.8-20.6,38.8-26.6,49.8-45.2,82.3-93.3,162.9-137.6,246.3-5.6,10.5-9.9,21.8-15.7,32.2s-20.2,34.4-23.7,35.3c-5.2.4-6.7-4.2-6.4-8.6,6.1-8.4,8.9-18.7,13.7-27.8s14.8-21.5,20.9-32.5,12.3-27.9,20.5-40.5c-1.6-2.6-3.4-.6-5.7-.9-26.9-2.8-53.1-7.2-79.6-12-26.5-4.8-61-9.6-85.9-18.8-4.3-1.6-8.1-4.7-12.5-6-2,.4-5.4,23.5-6.3,27.5-7.7,32.8-15.7,64.1-21.4,97.5s-1.6,22.7-4.5,26.1-6.1-1-9.9-.6c6-25.9,7.8-52.7,13.4-78.8s4.2-12.6,5.5-18.4c7.1-31.2,12.7-58.3,16.9-89.9,2.7-20.3,2.4-54.7,13.8-71.3s5.2-3.9,5.7-4.7c.8-1.3,1.3-5.9,2.7-8.8,7.4-14.8,38.7-40.9,52.7-50.9,3.5-2.5,8.8-4.2,12-6.5,4.5-3.4,10.8-13.1,15.2-17.5s19.5-15.8,21.3-20.1-1.2-1.8-2.5-1.4c-9.9,2.9-15,6.5-23.7,10.1-13.6,5.7-26.4,9.8-40.2,16.5-33.6,16.2-67.7,29.6-81.3,68.1-10.7,30.4-10.8,64.6-10.5,96.5.3,29.8,1.6,59.8,3.4,89.4,1.5,25.5-7.5,68.1-9.8,95.9-.6,6.8,2.8,26.8-8.8,23s-1.9-7.7-1.7-12.5c.6-12.4,1.6-23.2,2.8-35.6,1.9-19,6.8-43.1,7-61s-2-19.8-2.3-29.6,1-24,.8-35.8c-.8-45.7-6.7-96,11.7-139.8,11.7-27.7,41.2-44.7,67.4-56.9,28.3-13.3,56.6-22.1,85.9-31.8,5.9-1.9,3.9-3.8,5.2-5.1s2.1,0,3.1-1c3.8-4.2.4-15.3.2-20.6s.9-14.7-.3-21.8-.6-2-1.7-2.7c-2.3.8-4.7,1.7-6.9,2.8s-9.9,5-12.1,6.5-5.6,8-8.4,7.9l-6.5-6.4c-5.1.1-9.1,3.5-13.5,5s-6.1.9-8.9,2c-4.4,1.7-16.7,11.4-18.9,11.7-6.5,1-8.3-8.9-11.3-7.6-3.7,5.3-13.9,6-20,8.9s-10,7.4-12.3,7.3c-11.7-4.1.4-15.3-5.4-22.9-4.7,5.5-16.1,7.2-20.6,11s-2.2,6-4.4,7.6-5.4.5-8.2,1.6-9,7-10.4,8.1c-3.3,2.7-1,5.4-8.4,4.1s-5.9-4.9-9-9.5l-12.2,14.2c-7.1,2-11.8,3.8-15.8-3.7-2.9-5.3-1.6-7.9-2-13.3s.8-3.2-1.6-2.7c-4.7,5.5-8.1,12.4-12.6,17.9s-16.2,16.1-21.8,24-3.7,10.7-8.4,11.3c-4.9.6-7.2-6.1-7.4-10.1-.4-6.5,2.4-14.3,2.7-20.8,1.1-19.8,2.1-36.1,4-55.7,6.7-69.4,7.3-127.7-8.4-196.1-3.2-13.9-12-32.3-13.9-45-5.4-36.5-18.8-70.9-23.7-106-3-21.6,1.8-57.5,10.1-76.5.6-1.3-.6-12.4,0-14.8,6.4-25.2,30.4-68.2,48.2-87s21.9-16.1,34.1-24.7c11.8-8.3,31.5-25.5,43.3-30.8,10.1-4.5,24.6-5.7,34.8-9.9s22.9-14.9,40.1-15.5c10-.4,37,10.1,47.4,14.2s7.2,3.7,11.2,5.3c31-11,61.4-22.2,94.9-22,30,.2,66,9.6,84.3,34.6,13.5,18.4,26.1,37.2,39.9,55.5ZM455.1,48c-3.2-9.6-11.7-10.7-19.3-15.1-19.2-11.1-31.3-15.2-54.3-15.4-4.8,0-11.5,2.2-16.9,1.1l13.3,1.4c17.4,3.1,33.6,10.5,50.2,15.3l27,12.8ZM224.6,44c2.9,2.9,8.6,13.4,11.8,13.4s14.7-10.7,14.7-12.1-10.6-15.1-12.7-16.8-14.6-7.5-17.2-7.6-19.3,5.3-20.2,6.4c-.7,3.2,3.2,2,5.8,3.4,4.6,2.5,14.2,9.6,17.8,13.3ZM485.2,92c-5.5-7.8-12.1-15.7-17.5-23.4-2.5-3.5-5.5-10.6-8.8-13-6.4-4.8-34.7-14.9-43.9-18.2-13.5-5-30.3-11.8-44.4-12-7.1-.1-17,2.1-23.9,2s-15-3-20.8-2.3-8.8,2.6-10.3,4.4c7.2,1.7,14.8,1.2,22.1,2.5s15.6,4.5,23.4,6c14.4,2.7,25.8,2.9,40.6,7.4,34.8,10.6,52.2,25.5,75.2,52.3,16.2,18.9,27.4,45,40,66.9,8,14,18.7,26.7,22.3,43.1l24.9,49.7c-3.3-12.7-5.2-26-8.8-38.6-12.8-45-43.4-88.8-70.1-126.7ZM249.5,26.2c-1.3,0-1.4,1.5-.8,2.9,1.4,3.2,7,8.2,8.9,11.8l12-5.5-20.2-9.2ZM220.2,49.5c-2.1-1.8-8.5-7-10.6-8.5s-15.1-8.2-16.8-8.2c-2.6,0-27.2,8.4-31.3,10.1s-8.8,3.5-11.8,6.7l25.6-3.8c15.9,3.7,29.4,16.5,37.1,30.6l15.7-12.7c-2.8-5.5-3-10-7.9-14.1ZM426.3,64.8c-35.6-21.1-97.4-30.8-137.6-19-1.6.5-1.9-.6-1.6,2.2,15.9,4,31.3,9.4,47.3,13.2s13.5,1.8,22.3,6.4,12.5,1.4,13.3,2.2c.7,5-11.3,2.2-13.8,1.3s-1.4-2.5-2-2.4c-1.5,0-2.3,1.9-3.9,1.8s-11-3.9-14.9-4.7c-18.9-4-41.8-9.5-60.8-11.2-3.1-.3-20.7-1.2-22.7-.8s-7.7,4.8-6.2,6.2c8.6-.8,16.9,1.5,25.1,3.8s23.9,10,31.3,11.3,23.3,0,33.5,1.3c30.9,4,47.3,20.8,70.6,39.3,10.9,8.7,24.7,18.1,34,28.4,13.9,15.5,21.5,35.4,33.1,51.9,8.3,11.7,21,22.2,28.4,34.8,6.6,11.2,9.7,27,15.2,38.2,1.7,3.4,5.8,6.4,7.5,11,1.8,4.6,1.7,10.2,3,14.4,5.2,16.5,12,31.8,16.4,49,7.4,29.2,7.4,48.1,8.5,77.5,1.2,32.5,5.9,63.5-5.3,94.8-3.7,10.4-10,23-14.9,33.1s-11.1,18.8-10.6,20.6l5.9,6.2c1.6-3.7,10.8-16.5,15.2-15.2,3,.9.5,7.8,2.7,9.3,6.9.3,11.1,1.4,15.3,7,3.9-7.4-2.2-9.6-2.2-18,0-24.2,11.9-43.9,13.2-67.5.6-11.6,1.3-17.2,2.9-28.7,3.2-24,.7-38.6-1.8-61.8s-.2-20.5-2.7-30c-7.3-28.1-17.2-55.2-29.8-81.4s-2.8-3.1-3.7-5c-1.7-3.5-9.6-19.6-9.6-21.9s1.1-2.6,1.1-3.9l2.7,1.1c2.8,6.4,5.5,14.6,8.9,20.6,3.3,5.9,9.3,12.2,12.7,19,9.8,19.4,18.1,48.2,24.6,69.2,4.7,15.2,8.6,72.6,6.8,89.1-1.6,14.6-4.1,38.2-6.8,52.1s-13.9,33-13.9,51c3.1-3.4,6.7-8.2,9.1-12.1,33-53.1,41.5-141.9,21.6-200.2-6.6-19.2-14.9-36.6-22.9-54.5-18.8-42.3-38.7-83.9-61.1-124.3-6.7-12.1-11.7-20.8-17.9-33.3-14.4-29.2-37.5-54.7-65.5-71.3ZM189.4,96.3c4.2-5.9,6.1-3.5,10.9-4.9s5.8-7.8,5.8-9.1c.1-6.2-17.8-17.7-23.2-20-9.2-4-16.6-5.7-26.1-1.3s-2-.5-1.5,2.3c5.6.9,14.6,3,19,6.7s1.3,3,2.1,3.9c2,2.4,5.4,2.1,4,8-3.5-.4-4.8-4-7.9-5.7-9-4.9-20.2-7.6-30-4.5-19.6,6.3-45.2,20.7-59.7,35.2-14.1,14.1-18.6,28.3-27.6,45.5-14.9,28.5-24.9,45.8-27.4,79.4s.6,53.2,8.5,86.4c6.7,28.4,12.1,55.9,19.6,84,8.1,30.2,13.9,63.4,16.1,94.3l3.9,33.5c.9-7,1.7-14.3,2.2-21.3,2.1-31.1-1.3-58.8-3.3-89.4-2.9-42-26.9-73.6-29.4-114.5-.5-8.7,1.3-17.2,1.2-25.1-.1-17.4-5.4-36.4-3.3-53.3,2.5-19.4,15.8-31.1,27.2-44.8,13.8-16.6,9.5-25.1,14.9-42.9s15.1-40.5,34.4-52.8c10.4-6.7,28.3-5.8,39.3-.5s17.4,13.5,27.3,17.4,8.7.3,14.9-.2c.9,4.9-2.3,6.1-6.3,7.3-21.5,6.8-36.1-23.6-59.6-21.5s-29.7,23.3-34.9,36c-5.7,14-7.6,33.9-14,46-10.5,19.9-32.8,33.2-35.6,57.1s.7,12.3-1.1,18.3l4.3,19.2c12.1-2.9,46.4-10.8,56.6-3.8,2.4,1.6,2.7,3.5,2.1,6.3l-56.4,17.2c1.3,4.4-.9,8-1.2,11.4-.5,8.7,3.7,33.6,7.1,41.8s15,7.2,15.7,3.9l-3.3-4.4c1-5.5,7,.5,10.6-3s5.4-13.2,5.9-13.7,3.4-.3,4.9-1c5.6-2.6,9.7-6.3,16-8s18.8-1,27.5-2c1.6-.2,2.8-.1,3.8-1.7-10.9-16.1-36.7-12-52.6-5.7-1.9.7-9.3,6.4-10.7,5.1,3-8.4,12.3-10.4,19.9-13.2s.7-1.6,1.7-2c4.2-1.5,27.1-1.5,31.3-.2s19.1,11.6,20.7,15.4.2,4.5,1.1,6.6c9.7,23.5,9.6,39,2,63-1.8,5.7-6.1,12-7.7,17.4s-2.5,13.1-2.4,14.9c.3,3.4,4.6,11.4,7.2,13.6,5.9,5.1,12.6,2.5,19.2,3.7s3.6.4,2.8,2.3c-2,6-12.3,6.7-17.7,6.1s-18.3-5.8-20.4-6.9c-5.9-3.2-10.1-11.9-2.7-15.9.9,0,0,9.4,3.8,9.8-5.9-20.8,5-40.1,12.6-58.8l-1.2-3.3c-17.9,7.3-36.3,17.4-55.7,8.7l1.3-4.5c20.5.9,41.1-4.5,58.2-15.8-12.5-.7-22.2,1.6-31.7-8.7l-9.1-12.5c-5.7,1.4-17.5,17.7-19,23.5s1,6.7-1.9,9l-2.2-9.8c-3.6,0-6.1,7.2-8.2,8.2s-8.7.2-12,1.6c11.8,26.7,16.2,56,26.1,83.4,19.6,54.1,75.6,103.3,119.3,138.1,3.8,3,7,8.1,12.3,10.6,9.5,4.5,12.8-2.2,21.7-1,2.2.3,1,2.4,3,2.3,21.3-1.5,55.8-22.3,73-34.6,26.1-18.7,66.5-47,85.2-73.5,4.4-6.2,8.7-16.4,12.8-23.1,7.8-12.6,13.6-16.4,16.9-32.1,4.1-19.6,4.4-42.5,3.7-61.8,0-1,1.2-10,1.5-10.4,1.1-2,6.4-2.6,8.5-2.2s4.6,5.2,7.8,5.3c5.6.3,14.1-3,18.5-6.6s13.5-19,16.8-24.6,3.3-9.1,5.1-11.2,4.6-1.8,6.5-4.4,5.3-10.9,6.4-14.4c3.2-10.8.3-16.1-6.4-24.7l-9.1-6.7c-.2,3.3,3,4.8,4.1,7.4,5.8,13.8,2,28.5-5.8,40.5s-19.2,16.1-23.5,27.2l-6.4-.3c-2.2-1.3.8-5.6,1.7-7,12.8-19,37.8-30,26.4-59.2-2.8-7.2-18.4-5.4-21.4,2.1-3.7,10.5-10.3,19.7-17,28.4l-3.8-.8c-1-1.1,1.1-8.6,1.9-10.5,1.3-3.3,5.8-12,7.6-15.3,2.9-5,8.2-13,13.7-14.7,8.7-2.6,13.1-1.1,21.4,1.3-7.6-9.1-17.9-7.5-26.7-1.1-9,6.5-14.2,20.2-19.2,29.8s-7,9.7-8.8,15.2c-2.2,6.7,1.7,18.6-9.9,14-5.6-13-11.5-25.9-15.2-39.5s-6.3-32.9-6.4-50.3c-25.7-33.4-67.8-45.7-104.5-63.4-13.8-6.7-27.2-14.4-41-21.2-12.2-6-23.4-7.8-33.2-18.1l-25.1-29.4c-5.1-3.2-12.1-1.5-17.7-.8l-2.7-2.7c-.2-1.4.5-2.3,1.3-3.3ZM399,118.2c-12.8-10.2-33.4-28.7-48.8-32.5s-17.5-3.3-24.4-4-19.6,1-27-.3c-9.2-1.6-24.3-10.5-34.6-13.4-6.3-1.8-22-5.4-27.2-2.1s-8.9,7.9-8.8,8.7c1.3,2.1,1.8,1,3,.9,14.7-.4,28.7-6.2,42.7,2.5s9.3,9.2,15.3,11.9,15.3,3.9,22.6,6.8,11.7,7.9,17.8,10.6c14.2,6.2,31,5.8,46,12.9,13.1,6.1,55.2,40.4,63.3,52.3,11.7,17.2,21.1,52.9,25.4,73.8.6,2.9,2.4,11.2,1.1,13.2-2.2,3.2-4.5,0-5.3-2.4-7.5-23.1-11.7-55.5-24.3-76-6.6-10.6-44.3-42.3-55.7-50.1-18.4-12.6-35.8-8.6-53.4-16.3-5.3-2.3-8.9-7.3-14.9-10.2s-19.3-4.8-26.6-8.3c-8.5-4.2-11.6-13.2-22.1-16.1-11.1-3-18.8,0-28.9-.4s-6.1-2.9-10.7-1.2c-1.5,3.7-4.2,5.4-6.3,8.2s0,2.8-1,3.3-3.5-1.3-4.4,1.1.4,2.2,1.6,2.8c6.9,3.9,13.5,3.6,20.8,6.4,22.2,8.7,30.2,19.7,47,33.7,10,8.3,30.8,10,43.8,14,38.4,11.9,77.8,32.1,99.6,67.2,11.3,18.2,18.7,38.6,30.9,56.3,2-1.5,1.9-2.1,1.1-4.3-2-5-7.5-11.9-10-17.3s-5.4-15.4-8.8-22.8c-3.9-8.4-12-28-16.7-34.6s-15.2-10.9-20-14.9c-21.8-18-31.7-25.2-58.7-36.2-24.2-9.9-37.5-10.3-59.1-27-21.2-16.4-29.6-19-56-24.5s-6.2.6-8.9-.7c-1.5-1.6,0-2,1.6-2.2,17.3-2.2,40.7,2.5,55.4,12.2,15.8,10.4,20.2,17.7,40,25.4,28.8,11.2,55.8,18.1,80.7,38.2s26,20.3,28.4,23.2c5.7,7,17,32.7,20.9,42.1s10.2,34.4,15.8,35.5c6.6-2.7,11.6-8.4,18.8-10.1,11.1-2.6,14.3,1.9,23.6,4.8,1.5.5,2-.1,1.6-1.6-1.6-5.3-9.4-20.6-12.6-25.6-6.8-10.7-17.6-19.5-24.9-29.6s-15.4-28-23.7-40.6c-11.2-17-29.2-30.3-45-42.8ZM279.5,142.9c-.1-.1-1.7-.2-2.6-1.2-14.4-16.6-30.3-27.7-50.8-35.9-1,4,2.6,4.2,4,5.8,5.5,6.7,10.2,14.1,17.5,19.1,8.9,6.1,20.9,8.9,30.5,14.2,1.9.9,2-1.5,1.5-2ZM394.7,193.4c-15.7-13.7-31.4-22.8-50.9-30.4s-36.1-11.7-55.6-13.6l17.5,10.2c31,14.8,63.3,26.5,91.7,46.5l26.5,25.1c1.3-1.4-1.1-4.5-1.8-5.8-6.9-11.3-17.6-23.3-27.5-31.9ZM434.4,307.5l13.6-23c.7-1.1.7-2.2.4-3.5s-7.1-14.4-8.1-16c-2.8-4.5-10.3-13.4-14.1-17.5s-7.8-8.6-9.3-7.6l17.5,67.6ZM515.1,564.8c3.8-3.6,7.7-9.6,10.2-14.3,12.9-24.5,22.1-53.3,22.5-81.1.5-39.4-1-79.6-9.1-118.5s-10.4-42.4-14.4-44.5-5.3,12.4-7,13.3c-7.4,4.8-9.2,14.9-14.2,22.1,16.6,60.1,26.4,124.3,6.8,184.5-4.1,12.4-10.8,26-21.5,34.1-3,2.3-11.7,5.2-13.7,8.4s-4.5,18.6-3.8,23.2c3-1.3,4.8-4.3,7.2-5.9,7.8-5.2,21-9.7,26.8-16.3s14.3-34,17.1-45.6c5.5-23,15.3-72.1,11.3-93.8-1.2-6.5-4.5-11.9-5.7-17.2s-.6-2,1.2-3.3c4.9-.9,10.8,16.9,11.7,21,3.5,15.5-2.5,50.1-6.1,66.5s-8.4,33.9-13.1,49.1c-1.9,6.1-5.1,12-6.2,18.3ZM144.3,331.5c.3-.3.2-4.2-1.1-5l-4.4.6c-1.7,3.5,4.1,5.7,5.4,4.3ZM144.2,332.7c-6.8-4.1-11.6,7.2-.6,4.1s1-3.9.6-4.1ZM499.8,346.7c-.6-.4-2.2,1.7-2.5,2.5-.9,2.5,3.2,19.2,3.6,24.2,2.5,30.9-.1,63.8,1,94.9-4.2,26.2-11,52-22.1,76-1.3,2.8-8.1,13.7-8.2,14.7-.3,1.6,2.1,3.6,3.7,3.6,2.6,0,15.3-10.4,17.5-13.1,11.4-14,19.3-52.4,21.1-70.5,2.6-25.1-1.9-52.3-5.2-77.4l-1.5-19.2-7.4-35.7ZM462.7,544.1c8.3-1,10.8-4.4,14-11.6,21.5-47.3,23.3-112.4,15.2-163.3s-.9-8.7-2.6-9.4l-8.2,11.5c2.8,14.1,8.1,30.4,8.8,44.6,1,21.3-4,59.2-9.5,80-4.3,16.2-11.7,32.6-17.8,48.2ZM396.2,572.4c3.2-2.6,6.9-1.9,10.4-4.4s14.2-16.3,16.9-20.2c29.3-41.3,42.2-106.2,39.2-156-.2-3.2-1.7-17-3.8-17.9-3.2-.5-2,0-2.8,1.6-3.4,6.9-.6,12.7-.9,19.7-.7,16.2-4.4,42.5-10.2,57.5-1.7,4.4-5.5,9.1-6.8,12.7s-.2,9.5-1,13.4c-7.6,38.7-22.2,56.9-40,89.7-.7,1.3-1.5,2.1-1.1,3.8ZM441.9,570.1l7.1-12c13.1-47.6,27.9-93.3,26.9-143.3s-1.1-28.5-3.3-37c-1.2-4.7-4-4.4-4.5-1.1-.9,7,2,17.7,2.3,25.1.8,19.8-.5,40.7-3.4,59.8-4.5,29.2-22,68.4-39.8,92.3-2.5,3.4-8.5,5.4-6.5,8.8l15.9-1.7,2.2,9.3h3.1ZM64.7,679.3c2.9-2.6,8.4-6.7,10-10.1,22.7-47.5,21.8-116.8,31.7-170,.5-2.6,2.5-5.7,2.5-7.9,0-5-8.2-13.6-10.8-18.1-4-6.9-7-14.3-9.9-21.7-.2,9.6.4,19.3.5,28.9.2,24.4-1.6,58-9.2,81.2-1.7,5.2-6.3,12.4-7,17-2.5,15-5.1,37-6.6,52.3s.3,33-1.1,48.5ZM331.3,565.9c-3.5,2.6-6.5,7.2-11.5,7.7,3.9,7.1,5.7,14.7,7.4,22.6,6.4,30.7,8.5,67.8,4.6,98.9-.9,7.4-2.2,25.8-12.8,21.1-2.4-2.4,2.5-18.1,3.1-22.1s.9-10.7,1.1-15.2.8-6-1.1-6c-1.8,8.2-7.7,14.2-13.2,20s-5.9,6-8.6,8.6c-19.8,19.7-44.8,32.2-63.3,52.6-7.9,8.7-26.4,34.4-29.1,45-3.8,14.7-3.1,30.6-4.7,45.4-.6,5.5-5.8,33.9-4.2,36.4,14.4,5.1,29.2,8.4,43.9,12.2,26.7,6.9,53.6,13.4,81.1,17.8,21.2,3.4,44.2,8,65.3,2.6,5.4-16.5,16.7-30.9,25.5-45.9,29.8-50.9,59.7-101.8,88.1-153.1s14.4-25,20.7-37.9c0-3.2-21.3-22.1-22.8-30.6s1.7-16.8,2.1-25-.7-10.4-.8-15.3c-.1-7.4,1.3-14.7-.2-22.2-1-1.2-9.5,4.9-11,5.9-4.2,2.7-7,5.6-10.7,7.8s-9.9,4.4-12.2,4.3-8.9-1.7-9.5-3.4c-1.6-4.5,5.1-22.4,4.2-23.3-2.8-.8-4.4,2.1-6.5,2.8-4.5,1.3-14.5,1.2-19.1.4s-9-3.4-9.3-8.7c-9.6,2.2-36.7,18-45,15.1-3.9-2.2-2.2-5.8-.6-8.9,13.7-26.1,40.4-62.9,46.5-90.9.2-1.1,1.1-3.8-.8-3.5-5.2,8.4-13.9,15.1-20.8,22.3M133,517.2c-6.5-7.1-12.2-14.5-19.2-21.1-.8,12.5-.9,25.1-2.2,37.6-2.9,28.4-6.5,60-11,88.2-.7,4.5-2.6,8.7-3.2,13.2,2.1,2.5,1.7,0,2.3-1,1.4-2.3,1-4,4.8-4,4.6,3.8,6.7,3.4,8,9.5s.5,14.7,1.2,21.1c3,3.4,15.5-18.2,16.4-20.1,10.7-23.2,9.3-58.5,10.8-84,.4-5.9,3.5-26.9,1.2-30.6s-4.5-3.1-6.1-4.8-2-2.8-3.1-4ZM166.9,551c-1.9-1.9-5.4-3.3-7.3-5.3-3.5-3.5-6.2-8.9-10.9-11.5,1.6,12.5,2.4,25.1,2.2,37.7-.4,18.8-4,37.1-5.5,55.6-.2,2.5-1.6,24.6,1.6,24.5,5.5-4.5,10.3-10.4,16.7-13.3,3.5-18.2,2.8-37.4,4.1-55.9s3-18.1,2.5-27.2c-2.5-.9-2.9-4.1-3.4-4.6ZM461.6,553.9l-4.3-1.1-8.8,17.4c5.3,2.5,13.9-15.1,13.1-16.3ZM193,575c-6.4-2.2-8.6-10.8-16-11.3.1,11.5,1.7,22.9,1.1,34.4s-2,11.1-2.3,16.3,1.2,11.3,0,16.9c6.5-1.1,11.3-5.6,16.4-9.2s4.5-1.3,5.9-2.8c4.9-5.5,4.4-23.4,12.6-28.8l-17.8-15.4ZM540.1,570.3l-5.9,6.6-.6,7.6c6-.8,5.4-9.6,6.5-14.2ZM313.3,580.1l-22.4,10.9c-1.1,5.9-5,29.5,6,26.8s20.4-10.9,21.3-12.7c1.9-4.2-.9-5-1.3-7.4-1.2-5.9-2-11.9-3.6-17.7ZM283.9,593.2c-8.5,2.2-16.4,6.2-25,8.2s-6.5-2.2-8.5,3.5-4.6,21.2-4.7,23.7,0,2.6,0,3.8c1,1,13.1-6.1,15.4-7s4.7-.2,7.5-1.2c4.7-1.7,10.6-6,15.3-8.2v-22.9ZM242.3,603.1c-9.5-.6-17.7-4.9-26-8.9l-9.7,39.9c-.3,1.7-.6,4.3,1,5.4,3,2.1,28-13.1,32.5-15l2.3-21.4Z"/>
  <path d="M572.7,998.9c2.2,1.4.9,19.5,1.2,23.3,1,16.4,4.5,33.4,1.7,49.5s1.1,3.7,0,5.5l-5.4,2.3-5-13.7c1.7-18.8.6-38.3,1.1-57.8.2-5.3-4-10,6.3-9.1Z"/>
  <path d="M343.9,276.9c4.4,1.1,6.6-5.6,9.5-6.3s5.6,1.4,8.5-1.3c8,4.6-2.1,7.3-5.4,10s-4.5,5.5-5.7,6.2c-3.4,1.9-7.2,1.5-10.8,4.5s-3.7,9.7-8.7,9.9,3.8-9.3,3.8-10.4c-2.6-3-7.3-1.2-10.9-1.6,1.6,17-15.9,24.5-30.7,20.4-12.8-3.6-8.6-10.9-14.5-20.4-6.7,7.6-16.7,14.1-22.9,21.8s-12.6,23.8-15.7,14.6c-1.2-3.6,5.7-19.4,8-23.3,5.7-9.6,20.2-23.5,30.9-26.9,3.9-1.2,8-.9,11.2-1.9s3.6-3.4,5.1-3.7c2.2-.5,7.2,2,10.1.9-.5-2-4.2-3.1-5.9-3.3-13.7-2-26.1-.7-37.6,7.2-6.5,4.5-12.8,13.4-18,16.9s-2.2,1.4-3.9,1c-2.8-2,6.2-13.1,8.2-15.3,12.6-14,36.3-17.4,54.4-15.1,1.5.2,6.1,1,6.7,2,2,4.1-1.1,5.1-3.9,7.2,6.4,7.5,20.5,3.1,26.7-2.7,5.4,4.3-3.4,6.6-3.8,8.2,4.6,9.1,14.4-12.6,19.6-4.4l-4.3,6ZM291.5,297.7l6.9,3.2,10.5-9.2c-5.4-5.4-8,1.8-11.6,3.7s-8.5-.4-5.8,2.3Z"/>
  <path d="M187.9,491.8c8.5,20,33.2,19.1,49.7,9.8l2.7,2.7c-1.1,4.9-19.1,10.3-23.8,11.1s-16.9.7-21.7-1.6c-7.2-3.6-17.1-19.9-19.6-20.8-4.2-1.4-7.8,3.8-12.3,3.1-.6-4.3,4-5.7,5.9-8.8s2.5-7.6,5.2-11.2,6.6-6.3,7.9-7.3c4.8-3.6,10-1,14.1-1.4s5.8-3.6,9.9-4.1,11.2-.5,15.3-.5c26.2.4,34.9,14.9,57.9,20,3.6.8,8.4-1.2,11.4,2.8-6.2,7-18.2,3-26.5,3.1s-29.5-.6-39.3.8-7.2,3.8-10.9,4.3c-7.8,1.1-17.7-2-25.7-2.2ZM238.8,474.7c-5.4-2.2-20.7-5.5-26.3-4.7s-13,5.9-17.6,6.5c-8.1.9-16.1-6.2-17.9,8.7,4.9.2,9.8-.3,14.7,0s15,2.5,20.7,2.3,8.4-5,12-6.1c6.9-2,16,1.8,23.4.5-1.4-3.9-5.1-4.1-7.8-5.5s-.9-1.5-1.2-1.7Z"/>
  <path d="M343.7,237.9l-1,5.3c-7.3-1.7-15,1-22.3-3.3l-1.2,2.3c-4.1-.9-10-1.9-14.1-2-37.6-.7-50.8,4.8-83.2,22.3-1.1.6-1.2,2.3-2.1,2.5s-11,1.1-11.5,1c-1.7-.4-4.7-4.3-5-6.1-.5-3.1,2.6-6.1,4.7-7.9,26.8-22.5,67.8-25.6,101.3-22.5,11.8,1.1,23.5,3,34.3,8.5Z"/>
  <path d="M329.7,309.7c.5,2.8-.5,1.9-2.2,2.7-7.3,3-15.2,5-22.5,8.1s-6.1,4.2-8.8,5.4c-4.3,2-22.6,6.8-27,6.8s-15-1.5-12-6.5c17.9,4,35-7.7,51.7-12.6,6.3-1.8,14.2-3.5,20.8-3.8Z"/>
  <path d="M473.5,322.6c-1.7.3-19.7,12.1-19.5,6.1,5-4,10.3-12.1,16.4-13.1,2.3,1.7,4,3.9,3.1,6.9Z"/>
  <path d="M207.6,412.2c3.9,4-9.5,8.6-12,9.3s-5.1,2.4-6.5,0c-.4-2.9,14.7-11.9,18.5-9.2Z"/>
  <path d="M282.8,351.1c-5.4.7-9.6-1.5-14.2-3.8s-13.1-7.3-10.9-9.3c5.8,1.1,11.2,5.2,16.7,7.8s8.4,1.4,8.4,5.2Z"/>
  <path d="M475.8,354.4l-8.6-1.2v-6.4c4.3.3,9.8,2.3,8.6,7.6Z"/>
  <path d="M486.7,563.7c2.9,2.3-7.5,20.2-10.3,19.6-5.5-1.2,2.8-9.1,3.6-10.5s4.4-10.9,6.7-9.1Z"/>
</svg>