<?xml version="1.0" encoding="UTF-8"?>
<svg id="Layer_1" xmlns="http://www.w3.org/2000/svg" version="1.1" viewBox="0 0 512 313.1">
  <!-- Generator: Adobe Illustrator 29.6.1, SVG Export Plug-In . SVG Version: 2.1.1 Build 9)  -->
  <defs>
    <style>
      .st0 {
        fill: #1b2023;
      }

      .st1 {
        fill: #761409;
      }
    </style>
  </defs>
  <path class="st0" d="M8.8,182.1c-.8-1.1-1.8-10.4-2.1-12.4-2-17.4-3-39.3,1-56.4,2.1-8.8,11.5-31.3,18.2-36.9,7-6,13.7-12.6,21.4-17.8C89.9,29.6,144.7,16.7,195.3,10.6c12.9-1.6,23.1-2.3,36-1.2,3.8.3,9.5-.8,13.5-.8,15.8-.3,32.2-.2,48,0,34.2.4,68.3,3.3,101.2,13.4,36.2,11.1,78.8,40.1,93.6,76.1,10.4,25.3,24.9,71.5,17.8,98.1s-33.1,67.5-60.2,82.2c-19.2,10.4-46.1,15.6-67.7,18.8-7.4,1.1-15.2,1.3-22.4,2.6-12.7,2.2-23.6,5.8-37,7-11.6,1-23.3.3-34.9.4-20.7.1-41.2-.1-61.9-.8-30.9-1.1-62.1-.3-92.7-5.2-8.2-1.3-18.2-4.3-26.4-6.5-21.4-5.7-43.9-23.3-59.7-38.6-14.2-13.7-31.8-44.3-33.4-64.1s.8-8.9.5-9.3-.7-.3-.9-.5ZM107,285.6c2.5,1,4.9,1.9,7.5,2.8,6.2,2,14.6,4.6,21,5.2s4.8.2,7.1.4c14.9,1,29.9,1.3,44.8,1.6.5,0,1.1,0,1.6,0,5.9.1,11.5,0,17.4,0,.9,0,1.9,0,2.8,0,1.7,0,3.4,0,5.2,0s.8,0,1.2,0c12.1-.3,24.7-.4,36.7-1.2,8.8-.6,17.4-2.3,26.2-2.8s14.1.2,20.6-.4,5.2-1.7,7.9-2c13.2-1.2,26.6-.5,39.8-1.6s2.9-.3,4.4-.4c5.7-.6,11.4-1.4,17.1-2.4s3.5-.9,5.2-1.2c19.7-3.8,44.3-8,61-19.3s45.2-36.5,58.5-61.3c11.7-21.9,2.9-54.6-4.2-77.2-7.2-22.8-14-39.7-31.3-56.7-58.5-57.4-144.2-52.9-220.5-51.9-42.5,3.7-85.4,9.4-125.7,23.4-16.9,5.9-34.3,11.6-48.9,22-4.5,3.2-14.4,10.2-17.9,13.8s-2.6,4.1-5,6.1c-4.6,4-7.6,4.8-11.1,10.7-10.1,17.1-14.3,35.3-13.3,55.3.5,10.2,3.2,21.1,3.1,31.4s-1.4,8.2-1.1,11.8c.7,11.1,13.3,35.4,19.8,44.8,14.9,21.4,46.1,39.6,70.2,48.9Z"/>
  <path class="st1" d="M373.5,283.6c-1.6.3-3.4.9-5.2,1.2-1.5-3.9-.5-8.4-.8-12.5-.3-6-1.3-12.9-2.6-18.8-1.2-5.8-3-12.6-6.9-17-.9,11.7-1.1,23.4-2.8,35s-1.6,10.7-3.9,15.7c-1.4.1-2.9.3-4.4.4-.2-4.2,1.6-8,2.3-12.2,2.2-12.5,3.1-28.8,3.3-41.5.2-19.3-7.7-35.9-11-54.4-5.6-32.1-1.5-59.7-24.5-86.1-.7-.8-2.5-5.1-2.8-5.2-.6-.1-1.9.7-2.5,1s-1.1,0-.8.8,4.8,3.3,5.8,4.2c14.3,13,9.6,33.2,6.4,50-3.5,18.5-11.1,39-29.1,47.8-5.2,2.5-12.3,3.8-16.9,6.5-3.7,2.2-6.6,6.4-10.7,8.7s-9.6,2.3-14.4,3.9c-4.7,1.6-9.7,5-14.7,5.5-8.6,1-20.8-3.9-27.3-9.5s-6.1-6.5-9.3-9.3c-5-4.3-10.7-7.1-13.8-13.5l-11.6-19.9c-.4,3.7-1.5,7.3-2.9,10.8s-4.8,8.9-5,10.1c-.3,2.4.5,4.3-.7,7.2s-3.6,4.3-3.6,0l-3.8,6.3c3.8-1,6.7-2.6,10.3-.2s2.7,3.1,3.5,3.3,5.9-.6,7.8-.3c6.8.8,11.7,10.1,16.2,13.9s3.7,1.7,5.4,3c8.3,6.3,14.9,29.5,15.8,39.7s-.1,11.8-.4,17.8.2,13.2-2.4,19.6c-.4,0-.8,0-1.2,0-.2-15.5,2.1-31.7-1.6-46.9-1.5-6.1-7.3-22.7-11.9-26.6s-5.1-2.1-7.3-3.8c-.2.6,1,3.3,1.2,3.6.5.6,1.8.3,2.6.6,3.9,1.4,8.1,11.9,9.5,15.9,5.8,15.7,6.7,32.6,4.3,49.1-.4,2.8-1,5.5-1.9,8.2-.9,0-1.9,0-2.8,0-.3-4.1.8-8.1,1.2-12.1,1.7-18.5.7-34.9-7.1-52s-2.8-5.7-3.3-6c-.8-.5-2.1.3-2.8.2-2.1-.2-4.1-6.6-5.6-8.6-4.1-5.3-9.5-5.8-15.3-7.3s-3.6-2-6-2.3-10.4.3-11.3,1.9-.2,5.8,1.4,7.6,6,3.6,4.3,4.8-6.3-1.7-7.7-3.4c-2.2-2.8-2.2-5-2-8.5-.7-.2-.8.2-1.1.7-.9,1.1-2,3-2.9,4.3-7.1,10.6-15.1,23.6-20.3,35.2-1.4,3.1-4.9,11.1-5.4,14-.8,5.1.8,6.2,5,3.8s9.6-8,10.7-6.9c-.2,5.7-11.7,12.8-16.6,10.8s-1.1-1.4-2.1-1.3l-5.2,17.8c-2.6-.8-5-1.8-7.5-2.8,2.8-6.2,4.2-12.8,6.4-19.1,10.2-28.6,27.9-50.9,43-76.7,3.2-5.5,7.2-12.2,9.7-18.1s5-13,5.5-16.3-.6-4.8-.8-7.1c-.7-11.5,2.4-29.9,8.6-39.8.6-1,3.2-3.8,3.3-4.2.3-.7-.3-.5-.5-.7-3.8-2.2-8-3.9-11.8-6.5-9.3-6.2-16.5-17-20.6-27.4s-1.8-4.4,1-4.9,2.5,1.1,4.1,1.6c-1-3.6-5.9-15.1,1.7-13,4.9,4.5,9.6,9.2,14.7,13.4,7.1,5.8,15,10.6,22.2,16.3h.6c1.3-3.6,5.7-6.2,9.1-7.7,13.7-6.2,23.5-5.4,37.9-6.2,18.4-1,30.8-5.6,49.4,1.8s4.3,2.2,6.5,2.9c9.8-4.6,18.8-11.1,25.9-19.4,3.9-4.6,7.2-10.9,13.3-12.9s7.1.9,8.2,6.1c2.7,12.6,0,18.7-10.4,25.8s-17.1,9.3-16.5,12c9.3,7.1,14.5,17.1,18.5,27.9,7.8,21,7,43.4,10.9,65.2,2.6,14.5,8.3,28.1,10.5,42.6s.1,5.2.5,6.6,3.7,3,4.7,4c8.7,8.9,11,31.9,11.1,44,0,2.6-.4,5.1-.4,7.7ZM337,51c-.7-.2-.8.3-1.2.6-9.2,7-14.4,17.7-25.1,22.9-9.3,4.4-13.7,6.4-22.3,12.1-3.6,2.4-7.7,4.3-10.8,7.2,2.7-.2,5.2-1.1,7.7-2,10.5-3.7,20.1-9.2,30.3-13.7s16.3-12.8,20.3-20.2,1.3-4.2,1.2-6.9ZM221.2,116c-1.3-5.1-5.2-9.5-9.1-12.9-12.9-11.3-28.8-21.1-42.2-31.9s-8.1-7.1-12.1-10.7c.5,3.3,2.4,6.7,1.7,10.1,15.3,14.9,36.1,23.8,52.3,37.3,2.2,1.9,4.4,4.3,6.5,6.1s2.7,2.3,3,2ZM284.7,76.3c-.6.6-7.8-2.8-9.3-3.2-3-.9-10.1-2.4-13.1-2.3s-3.1,1-4.4,1.2c-2.2.3-4.8-.2-7.1,0-10.1.9-21.4,1.7-31.2,3.7-8.1,1.7-16.7,3.8-23.3,8.8l.3,1,16.8,12.8c1.9.8,4.7,2.3,6.7,1.6s2.2-1.9,3.3-2.3c4.2-1.6,7.8,2.2,11.6,1.7s3.7-2.7,5.8-3.3,3.1-.8,4.7-.6c.2.9-.5.9-.9,1.3-1,.9-7.9,5.6-8.9,5.8-4.3.9-7.3-3.3-10.2-3.1s-4.3,4.1-7.3,2.8c.6,1.5,2,2.4,2.9,3.6,9.1,12,8.2,28.7,8.2,43l-1.2,13.3c.9-.5,1.4-2.1,2.2-2.8s2.3-1,3.6-.8c4,.6,9.2,13.1,9.7,17,3-2.8,5.2-7.5,9.9-7.1,0,4.5-4.1,7.9-6.5,11.5-3.6,5.5-7.7,12.2-9.8,18.4s-1.6,11.3-5.6,10-3.8-6-4.4-7.5c-1.3-2.9-2.3-5.9-3.1-9-3,1-4,0-5.9-2.2s-5-7.6-5.6-7.9c-1-.6-2.6,1.3-3.9,1.6-3.7.8-8.9-4.3-12.2-6.1s-5.7-2.8-8.8-3.2c1.7,5.1,4.9,10.6,8.9,14.3s5.4,3.7,7.7,5.7c9,7.7,13.8,15.7,27.3,17.5,8,1.1,13.2-3.5,20.4-5.6,3.6-1.1,7.9-1.1,11.3-2.6,4.9-2.1,8-7.1,12.7-9.5,8.4-4.4,16.3-4.8,24.1-11.6,13-11.2,16.9-27.3,19.6-43.5,1.6-9.8,3.9-20.6,1.3-30.3-.8.5-1,1.7-2,2.2s-1.5.2-1.6.2c-.3.3,2.2,5.5,2.3,7,1.5,12.7-6.4,40.7-15.4,49.9-.7.7-6.2,5.4-6.7,5.6-1.7.6-2.9,0-2.3-1.9s6.2-6.1,7.4-7.6c6.9-8.5,14.6-34.4,13.5-45.2-.4-4.3-6.6-12.7-10.4-14.5-5.7-2.8-10.8-.9-15.8-2s-1.7-1.7-1.9-1.8c-.7-.4-3.6,1.7-4.7,2.1-3.1,1.2-7,1.3-10.3,2.4-5.3,1.8-11.4,6.8-15.1,11.1s-5.7,8.9-6.5,9.4c-2.5,1.5-3.1-1.4-4.4-.4s-4.3,6-5,7.3-1.6,2.7-2.3,4.1-1.9,5.9-2.8,4.9c-.4-5,2-9.7,4.6-13.8,5.3-8.6,9.2-14.6,15.6-22.4s5-7.7,11.3-11.7c4.7-3,8.3-6,12.8-9s7.2-3.7,10-6.6c-1.7-.7-3.9-2.4-5.8-2.6s-.4.9-.6,1.6ZM310.4,102.1c.5-.4-2-2.6-2.4-2.9-4-2.9-11.1-3.6-15.4-1.2l17.8,4.2ZM222.8,185.9c-.2-3.1,0-6.7,0-9.9s4.4-10.9,4.3-12.7-.6-1.1-.7-1.7c-.8-5.4-2-39.7-4-41.1-3.1-.4-5.9-1.7-8.7-2.8l-28.1-12.4c-4.4,10.6-7,22.3-7.6,33.8-.5,10.1.5,16.8,4.6,26s2.8,6,3.2,6.4c.8.7,3.3.3,4.7.5s3.2.7,4.7,1.3c3.3,1.3,9.6,6.5,11.8,6.9s3.2-3.4,6.2-2.6c.7.2,4.5,3.5,5.3,4.3,1.7,1.7,3.1,3.8,4.7,5.6.7-.3-.2-1.1-.2-1.4ZM314.9,109.2c.7.4,2.5,0,2.3-.9-1.1-1.2-2.8-1.2-4.2-1.8.2.4,1.7,2.6,1.9,2.7ZM233.1,166.3c-.9-.2-.6,0-.9.5-5.2,9.4-3.6,23.2-1.1,33.2.5.1.4-.4.6-.8.8-2.3,1.2-4.5,2.2-6.9,1.7-4,4.1-7.8,6.3-11.5l-7.1-14.5ZM169.8,203c-.5-.3-.8-1.3-2.1-1.6-3.1-.8-8.4,2.1-11.8,2.1l-1.7,2.9c2.9,1.5,3,0,5.3-.9,4-1.6,7.5-2.6,11.7-.8,1.3.5,2.7,2.1,3.6,2.4,1.4.3,3.1.3,4.9.7s4.5,1.8,6.7,2.6c-.4-2.6-6.4-6-8.5-6s-1.3.7-2,.8-4.9-1.5-6-2.1Z"/>
  <path class="st1" d="M187.5,295.5c.7-2.9.2-5.9,1.2-8.7-.3-.3-5.6,3.3-6.5,3.6-5.5,2.5-17.6,5.5-16.1-4.4-.4-.4-5.9,4.6-9.3,1.2s-1.2-13.1.4-17.1.9-2.8,2.7-2.8c1.6.3-1.3,8.3-1.6,9.5-2,10,1.6,9.4,7.8,3.8,1.4-1.3,1.9-3.6,4.5-3.3,3.7.4-1.6,8.4-.9,10.8s.5.6,1,.7c4.4.8,10.4-1.9,14.2-4s7.2-5.9,8.1-2.8-1.6,4.6-2.2,6.4-1.2,4.8-1.7,7.2c-.5,0-1.1,0-1.6,0Z"/>
  <path class="st1" d="M135.6,293.6c-3.5-5.1-.3-11.9,2.6-16.6s2.7-4.6,3.7-3.6l-3.2,16.6c3.1-1,4.7-4.3,6.9-6.3,4.2-3.8,7.1-2.7,3.9,2.8l-6.9,7.6c-2.3-.2-4.8-.2-7.1-.4Z"/>
  <path class="st1" d="M294.6,281.3c-.3-5.4,1.3-10.6.7-16s-2.4-9.2-5.1-12.4-2-.7-1-1.4c1.7-1.2,5.2,1.8,6.3,3.2,5.2,6.8,5.1,18.1.8,25.4s-.6,1.4-1.8,1.2Z"/>
  <path class="st1" d="M326,183.1c.4-.4,1.1-.3,1.7-.9,2.6-2.8,4.6-6.9,6.2-10.4s1.5-4.8,2.3-5.2c2.5-1.4,2.1,4.8,1.8,6.2-.8,3.8-6.1,14-10.3,14.3s-3.2-2.4-1.7-3.9Z"/>
  <path class="st1" d="M241.1,269c1.1,1.1-4.3,6-5.4,6.7-4.9,2.9-11.8,1.1-13.5-4.6s-1.3-5.5,1.2-5.6c2,3.3,2.2,7.4,7.2,7.4s9.8-4.6,10.5-3.9Z"/>
  <path class="st1" d="M325.1,228.6c.2-.3,4.9-1.5,5.8-1.9,3-1.3,5.6-3.3,7.6-5.9s4.3-7.9,4.8-8.3c1-.7,1.2.7,1.2,1.5-.5,7.6-6.6,15.7-14.5,16.5s-6.1,0-4.9-1.9Z"/>
  <path class="st1" d="M243.8,240c1.1,1-4.5,4.8-5.3,5.2-7.5,3.7-14.9-1.1-15.3-9.2,1-1,4,3.9,4.8,4.5,4.9,4.2,10.6.2,15.8-.6Z"/>
  <path class="st1" d="M281.1,255.5c-1,5.7-5.5,8.7-11.3,7.9-1.6-.2-8.6-3.1-8.2-4.9s.8-.6,1.3-.5c3.2.3,6,2,9.6,1.5s5.2-3.9,8.6-3.9Z"/>
  <path class="st1" d="M331.1,194.1c3.2,0,1.1,6,.2,7.9-1.6,3.5-6.7,8.6-10.7,8.7s-3.5-.8-2.8-2,4.2-1.9,5.1-2.4c4.2-2.6,6.7-7.6,8.2-12.2Z"/>
  <path class="st1" d="M293.4,223.4c.3-.3,5.9-1.9,7.4-2.7s3.3-2.3,4.5-3.4,3-4.7,4.2-3,0,3.8-.7,4.9c-2.2,3.6-7.8,6.4-12,6.2s-4.6-.6-3.4-2Z"/>
  <path class="st1" d="M278.3,224.6c1.1.7-.5,3.7-1.1,4.5-2.7,3.1-14.4,4.9-15.8.7s1.3-.9,2.5-.9c2.8,0,6.7-1.2,9.3-2.2s4.4-2.7,5.1-2.1Z"/>
  <path class="st1" d="M339.8,239.7c.6.5-.2,4.4-.5,5.3-1.4,4.2-7.6,8.8-12,9-1.4,0-4-.2-2.6-1.8s4.9-2.1,6.2-2.9,3.5-2.6,4.6-4.1,3.3-6.2,4.2-5.5Z"/>
  <path class="st1" d="M331.5,265.4c.6.6-1.1,5.5-1.6,6.5-1.8,3.6-5.6,6.2-9.6,5.3s-2.5-1.4-1.9-2.3,3.6-1,4.4-1.4c4.1-1.9,4.7-5.4,7.4-7.7s1.1-.7,1.4-.4Z"/>
  <path class="st1" d="M163.7,240c.4.4-2.8,8.4-2.8,10.5,0,3.3,2.4,6.3,5.8,6.5s9.8-2.6,12.1-3.7,6.2-4.8,7.3-5,.7.7.5,1.3c-1.2,4.4-15.5,11.5-19.9,11.4-6.8-.1-9.1-6-8.5-11.9-4.2,4.3-11.7,13-18.4,8.3-7.1-4.9-.4-18.9,3.2-24.5s2.3-4.1,3.6-2.8c.6.8-3.1,9.8-3.6,11.5-5,18.6,5.9,10,13.9,3.6,1.2-.9,4.6-4.6,5.4-4.9s1.4-.4,1.6-.2Z"/>
  <path class="st1" d="M191.5,244.8c-4.5.3-7.8.8-11.5-2.2s-4.1-6.6-3.2-11.3c-1.9.2-3.5,1.3-5.4,1.5-4.1.4-8.2-1.4-10.1-5.1,5.2,1.6,7.7,3.9,13.2,1.5,1.5-.6,6.7-5.5,6.1-1.4s-3.8,7.9.7,11.8c3,2.6,8,2.4,9.7,3.8s.4.7.4,1.4Z"/>
  <path class="st1" d="M189.9,251.9c.6,2.8-3.1,8.6-1.4,10.7,2.8,3.4,10.4.1,14.1.4.8.8-4.3,3.2-5,3.5-5.7,1.9-14.5,1.4-13-6.7s2.8-7,5.4-7.9Z"/>
  <path class="st1" d="M275.2,127.1c.2.2,5-1.4,5.6-1.7,1.7-.8,5.1-4.7,6.6-3.8s-1,3.2-1.2,4c-1.4,4.3,3.4,8.6-.4,15.9-4.1,8-10.9,7.7-18.3,9.5s-9,12.2-11.7,12.9-2.4-.9-1.9-2.3c1-3.1,5.5-7.7,6.8-11.5s.2-3.5.3-5.7c.5-10,11.6-22.9,20.5-26.9,3.7-1.6,8-2.1,2.7,1.9s-7.4,3.7-9.1,7.8Z"/>
  <path class="st1" d="M290.2,174.3c.6,2.4-2,3.1-3.8,3.9-6.2,2.9-21.6,5.2-28.5,5.2s-3.2-1.1-4.7-1.2-3.5.7-5.3.4c-1.2-1.3,4.2-3,5.1-3.1,2.7-.3,3.6,1.1,5.8,1.1,8.4.2,18.9-1.5,26.6-4.7s2.7-2.2,4.9-1.7Z"/>
  <path class="st1" d="M252.5,103.3c.4.4-2.2,2.8-2.6,3.2-5.5,4.4-10.4,6-13.7,13.2-.6,1.2-1.7,6.4-1.9,6.6s-1.2,0-1.6-.1c-.7-.5-1.8-9.7-2.1-11.4s-1.9-5,.3-4.6,3.2,6,3.6,7.5c4.1-6.7,10.9-11.3,18-14.3Z"/>
  <path class="st1" d="M232.7,84.2c-1,1.6-9.1,1-11.1,1.4-3.5.8-3.2,3.5-8.9,3s2.1-2.3,2.9-2.7c1.2-.6,2.1-2.1,3.6-2.8,2-1,9.5-1.6,11.8-1.2s2.5,1.1,1.8,2.3Z"/>
  <path class="st1" d="M247,87.4c1.5-.1,3.1.2,4.5,0,4.8-.7,7-7.3,12.7-6.7s-2.7,4.1-3.4,4.6c-3.9,2.9-5,5.5-10.8,4.4s-4-1.5-3.1-2.2Z"/>
  <path class="st1" d="M244.2,83.1c.3,3.4-5.7,6.3-8.5,5.9s-2.8-1-3-1.4c-.7-1.5,2.6-1.2,3.6-1.6,2.6-.9,4.9-3.3,7.9-3Z"/>
  <path class="st1" d="M211.7,171.4c-.3.2-.9.1-1.3,0-1.9-.7-5.2-11.8-7.6-14.2s-4.2-2-6-3.1c-6.5-3.9-7-14-5-20.6s2-3.7,2.1-4.6c0-2.1-6.5-9.8-1.4-9.3s10.5,9.6,12,12.2c3.3,5.6,6.2,17.3,6,23.7s-1.2,2.3-1.4,3.3c-.8,3,3.9,7,3.5,10.6s-.7,2.1-.8,2.2Z"/>
</svg>