<?xml version="1.0" encoding="UTF-8"?>
<svg id="Layer_1" xmlns="http://www.w3.org/2000/svg" version="1.1" viewBox="0 0 512 406.2">
  <!-- Generator: Adobe Illustrator 29.5.1, SVG Export Plug-In . SVG Version: 2.1.0 Build 141)  -->
  <defs>
    <style>
      .st0 {
        fill: #151a1d;
      }

      .st1 {
        fill: #e6ac41;
      }
    </style>
  </defs>
  <path class="st0" d="M159.1,194.8c23.6,9.3,41.6,28.9,53.7,50.6,17.7,31.8,27.2,67.7,50.7,96.8.9,1.1,10.4,11.7,11,10.7-.4-3.5.8-6.7.9-10.2,4.3-84-3.4-171.6,0-255.9-2.1-22,2-50.8-23.3-60.2-8-3-25.5-4.7-31.2-7.9s-1.3-3.4,1.6-3.4c8.1,0,21.5,4.1,30.3,5.3,25.8,3.3,46.9,3.3,72.6,2.7,57.1-1.1,108.5,2.9,145.5,51.6,46.7,61.4,44.5,201.9-11.5,257.6-42.5,42.2-95.3,32.9-149.1,31.1-3.7-.1-24.3-.3-25.8,1.8-.5,1.1,1.6,2.4,2.3,3,20.1,17.1,49.5,20.8,75,19.2,6-.4,33-6.1,36-4.1,5.1,3.5-6.1,7.2-8.2,7.8-45.3,14.9-106.7,12.2-145.3-17.6-43.8-33.9-52.7-81.1-71.3-129.4-10.3-26.7-20.8-50.1-53.9-50.4,1,37.7-1.2,75.6,0,113.3.6,18.6-1.1,39.1,18.3,48.3,14.2,6.7,33,8.5,48,13.2,2.9.9.5,4.4-1.9,3.8-43.4-9.7-85.3-13.4-129.5-7.9-5.7.7-43.3,7.7-44.9,6.1s0-3.2,1.5-3.4c17.1-4.4,47.1-6.1,55.8-24.1s3.4-17,4.9-25.3c-2.7-79,3.5-160.3,0-239.1-1-21.8-3.1-42.4-25.5-51.7-10.7-4.4-23.5-5.1-34-8.6s-4.4-2-4.4-2.7l3-2.1c15,3,30.2,5.9,45.4,7.8,31.8,3.9,56.2,2.7,87.7,1.8,59-1.7,113.1,14,116.8,82.2,3.2,60.4-33.7,83-88.3,87.5-4,.3-10.4-1.5-12.9,1.8ZM393.4,345.4c36.2-20.8,52.1-81.9,55-120.8,5.5-72.8-9-185.9-101.7-190.6l-23.5,1.8v316.3c24.1,3.6,48.2,6,70.1-6.6ZM119.5,182.5c1.1,1.6,9.1.7,11.6.8,21.4,1.4,45.1,5.3,62.6-11.1,24.1-22.6,20.5-94.6,1.2-119.4s-48.9-19.6-74.8-16.9l-.6,146.6Z"/>
  <path class="st1" d="M378.2,144.4c24.4-.9,47.5,20.3,49,44.7,2.6,42.4-46,69.1-78.1,40-31.5-28.5-14-83,29.2-84.6Z"/>
</svg>