<?xml version="1.0" encoding="UTF-8"?>
<svg xmlns="http://www.w3.org/2000/svg" version="1.1" viewBox="0 0 406 466">
  <defs>
    <style>
      .cls-1 {
        fill: none;
      }
    </style>
  </defs>
  <!-- Generator: Adobe Illustrator 28.7.4, SVG Export Plug-In . SVG Version: 1.2.0 Build 166)  -->
  <g>
    <g id="Layer_1">
      <g>
        <path class="cls-1" d="M406,489.18c-135.31,0-270.62,0-405.93,0,0-173.73,0-347.46,0-521.18,135.31,0,270.62,0,405.93,0,0,173.73,0,347.46,0,521.18ZM369.79,218.02c0-2.56-.18-5.13.03-7.68,1.88-23.49-7.97-41.68-25.19-56.75-33.07-28.94-71.68-46.35-114.83-52.44-64.18-9.05-119.2,13.17-167.96,53.38-17.25,14.22-26.35,32.68-24.53,55.69.64,8.08.49,16.22,1.2,24.29,2.38,26.87,6.13,53.52,17.79,78.21,30.15,63.86,80.08,107.83,141.57,140.11,5.33,2.8,9.9,1.71,14.39-1.22,18.01-11.79,36.61-22.8,53.77-35.72,36.7-27.61,65.78-61.86,85.45-103.68,14.05-29.86,17-61.86,18.3-94.2ZM190.53,52.87c-1.63-1.12-2.4-1.5-2.98-2.07-3.74-3.68-8-6.47-13.04-3.13-4.75,3.15-4.63,8.17-3.3,13.25,1.89,7.21,3.48,14.51,5.56,21.66.47,1.61,2.37,3.98,3.65,4,15.69.28,31.39.18,47.96.18,2.12-10.7,4.6-20.62,5.75-30.68.34-2.99-2.33-7.49-4.98-9.25-1.83-1.22-6.05.91-9.09,1.88-1.4.45-2.55,1.72-4.34,2.99-2.04-14.62-1.11-29.36-12.81-40.4-11.05,12.01-10.14,26.85-12.39,41.58ZM60.74,134.67c13.44-7.52,26.47-14.69,39.29-22.22,1.19-.7,1.97-4.09,1.35-5.56-2.82-6.65-6.14-13.09-9.42-19.54-4.26-8.38-10.33-9.93-14.63.14-.1.23-.73.22-.8.24-2.89-2.45-5.31-5.48-8.46-6.93-4.24-1.96-9.03-2.71-13.59-3.97-.31,4.54-1.09,9.11-.78,13.6.29,4.23,1.75,8.37,2.82,13.12-2.32-.41-3.66-1.03-4.78-.76-2.92.7-6.65,1.05-8.29,3.01-1.03,1.23.49,5.55,1.96,7.75,4.85,7.24,10.21,14.15,15.33,21.12ZM329.07,85.99c-6.9-8.39-10.69-7.89-16.07,3.43-2.64,5.56-5.13,11.22-7.26,17-.56,1.52-.19,4.68.83,5.29,12.52,7.5,25.24,14.66,38.6,22.3,5.83-7.73,12.14-15.46,17.67-23.7,3.11-4.63-.07-8.9-5.69-8.5-2.27.16-4.52.51-6.73.76,1.08-7.11,2.28-13.7,3.03-20.34.6-5.33-2.47-7.24-7.04-5.25-5.87,2.55-11.41,5.89-17.34,9.02ZM288.63,71.54c-.38-5.76-.3-11.1-1.18-16.29-1.23-7.27-4.45-8.48-10.64-4.25-4.9,3.35-9.52,7.1-14.27,10.67,1.38,1.78.88,1.08.21.72-2.78-1.53-5.8-4.33-8.35-3.97-1.91.27-3.88,4.47-4.71,7.25-1.95,6.51-3.15,13.23-4.81,19.83-1.03,4.08-.04,5.9,4.48,7,10.09,2.47,19.98,5.77,29.92,8.85,3.35,1.04,6.58,2.44,10.26,3.83,3.22-7.07,6.26-13.38,8.99-19.82,5.75-13.59,4.42-15.43-9.9-13.82ZM117.06,71.88c-1.26-.16-2.69-.32-4.11-.52-6.55-.94-9.89,2.28-7.59,8.24,3.35,8.67,7.56,17,11.28,25.19,15.4-4.71,30.18-9.24,45.99-14.08-2.64-9.43-4.93-19.16-8.15-28.56-1.77-5.16-7.05-5.36-10.55-1.05-.88,1.08-1.64,2.25-1.74,2.38-5.38-4.59-10.19-9.28-15.61-13.11-4.45-3.14-7.87-1.15-8.49,4.16-.66,5.63-.7,11.33-1.03,17.34Z"/>
        <path d="M369.79,218.02c-1.29,32.35-4.25,64.34-18.3,94.2-19.67,41.82-48.75,76.07-85.45,103.68-17.17,12.91-35.77,23.93-53.77,35.72-4.48,2.93-9.05,4.02-14.39,1.22-61.49-32.28-111.42-76.26-141.57-140.11-11.66-24.7-15.42-51.35-17.79-78.21-.71-8.07-.57-16.21-1.2-24.29-1.81-23.01,7.29-41.47,24.53-55.69,48.76-40.21,103.79-62.42,167.96-53.38,43.15,6.08,81.76,23.49,114.83,52.44,17.22,15.07,27.07,33.26,25.19,56.75-.2,2.54-.03,5.12-.03,7.68ZM357.18,221.55c0-6.33-.19-11.88.04-17.42.59-14.38-4.81-25.96-15.2-35.8-37.38-35.38-82.17-53.47-133.06-56.71-28.46-1.81-55.49,5.5-81.4,16.63-25.04,10.76-48.38,24.32-67.09,44.74-6.59,7.19-10.9,15.26-10.82,25.21.08,10.44.13,20.89.54,31.32,2.1,53.79,21.94,100.14,58.05,139.95,26.53,29.25,57.47,52.64,92.07,71.33,2.14,1.16,6.15.59,8.51-.65,22.76-11.96,43.34-27.1,62.79-43.86,31.99-27.58,57.71-59.78,73.15-99.47,9.5-24.43,11-50.26,12.44-75.27Z"/>
        <path d="M190.53,52.87c2.25-14.72,1.34-29.56,12.39-41.58,11.7,11.04,10.78,25.78,12.81,40.4,1.79-1.27,2.93-2.54,4.34-2.99,3.04-.97,7.26-3.1,9.09-1.88,2.65,1.76,5.32,6.26,4.98,9.25-1.15,10.07-3.63,19.98-5.75,30.68-16.57,0-32.27.1-47.96-.18-1.28-.02-3.19-2.39-3.65-4-2.07-7.16-3.67-14.45-5.56-21.66-1.33-5.08-1.45-10.1,3.3-13.25,5.03-3.34,9.3-.55,13.04,3.13.58.57,1.35.95,2.98,2.07Z"/>
        <path d="M60.74,134.67c-5.12-6.98-10.48-13.88-15.33-21.12-1.47-2.2-2.99-6.52-1.96-7.75,1.65-1.96,5.37-2.31,8.29-3.01,1.12-.27,2.46.35,4.78.76-1.07-4.75-2.53-8.89-2.82-13.12-.31-4.49.47-9.07.78-13.6,4.56,1.27,9.35,2.01,13.59,3.97,3.14,1.45,5.56,4.48,8.46,6.93.07-.02.71-.01.8-.24,4.3-10.07,10.37-8.51,14.63-.14,3.28,6.45,6.6,12.89,9.42,19.54.62,1.47-.16,4.86-1.35,5.56-12.82,7.53-25.86,14.69-39.29,22.22Z"/>
        <path d="M329.07,85.99c5.93-3.13,11.47-6.47,17.34-9.02,4.58-1.99,7.65-.08,7.04,5.25-.75,6.64-1.95,13.23-3.03,20.34,2.21-.26,4.46-.6,6.73-.76,5.62-.4,8.8,3.87,5.69,8.5-5.53,8.25-11.85,15.97-17.67,23.7-13.35-7.64-26.08-14.8-38.6-22.3-1.02-.61-1.39-3.77-.83-5.29,2.13-5.77,4.61-11.43,7.26-17,5.38-11.32,9.17-11.81,16.07-3.43Z"/>
        <path d="M288.63,71.54c14.32-1.62,15.66.22,9.9,13.82-2.73,6.44-5.77,12.75-8.99,19.82-3.67-1.38-6.91-2.79-10.26-3.83-9.94-3.08-19.83-6.38-29.92-8.85-4.51-1.11-5.51-2.92-4.48-7,1.66-6.6,2.86-13.33,4.81-19.83.83-2.78,2.8-6.98,4.71-7.25,2.55-.36,5.57,2.44,8.35,3.97.67.37,1.17,1.06-.21-.72,4.74-3.57,9.37-7.32,14.27-10.67,6.19-4.23,9.4-3.02,10.64,4.25.88,5.18.8,10.53,1.18,16.29Z"/>
        <path d="M117.06,71.88c.33-6.01.37-11.71,1.03-17.34.62-5.32,4.04-7.3,8.49-4.16,5.42,3.83,10.23,8.52,15.61,13.11.1-.13.86-1.3,1.74-2.38,3.5-4.31,8.78-4.12,10.55,1.05,3.22,9.4,5.51,19.13,8.15,28.56-15.8,4.84-30.59,9.37-45.99,14.08-3.72-8.19-7.93-16.52-11.28-25.19-2.3-5.97,1.04-9.18,7.59-8.24,1.42.2,2.86.36,4.11.52Z"/>
        <path class="cls-1" d="M357.18,221.55c-1.44,25.02-2.93,50.84-12.44,75.27-15.44,39.69-41.16,71.89-73.15,99.47-19.45,16.76-40.03,31.9-62.79,43.86-2.36,1.24-6.37,1.81-8.51.65-34.6-18.69-65.53-42.08-92.07-71.33-36.11-39.8-55.95-86.16-58.05-139.95-.41-10.43-.47-20.88-.54-31.32-.07-9.94,4.23-18.02,10.82-25.21,18.71-20.42,42.06-33.98,67.09-44.74,25.91-11.14,52.94-18.45,81.4-16.63,50.89,3.24,95.68,21.32,133.06,56.71,10.4,9.84,15.8,21.42,15.2,35.8-.23,5.54-.04,11.09-.04,17.42ZM205.79,149.16c9.12.71,18.14.83,26.95,2.22,28.1,4.44,44.97,21.87,48.69,49.88.87,6.55,1.2,13.17,1.62,19.77,1.31,20.64,2.2,41.31,3.94,61.92,1,11.86,4.04,23.56,4.89,35.42.85,11.95-5.55,20.26-16.73,24.41-2.6.97-5.23,1.85-7.82,2.83-14.94,5.62-19.55,17.65-12.18,31.73,4.72,9.01,7.06,9.29,14.7,2.67,18.38-15.95,32.07-35.88,47.11-54.7,11.31-14.14,12.98-28.46,6.75-45.89-7.27-20.36-11.82-41.76-16.5-62.94-2.93-13.28-3.79-27.02-5.82-40.51-2.47-16.38-11.8-27.15-26.94-33.83-47.04-20.76-93.79-20.35-140.79.26-16.79,7.36-25.41,19.71-27.6,37.58-1.95,15.86-3.68,31.85-7.26,47.37-4.5,19.49-10.7,38.6-16.32,57.82-2.85,9.75-3.73,19.2,1.97,28.36,15.27,24.56,32.58,47.46,54.04,67,7.24,6.59,10.35,5.83,14.78-2.97.85-1.69,1.54-3.53,1.95-5.38,2.98-13.38-2.92-22.22-18.27-27.55-17.48-6.07-24.05-17.49-20.8-35.63,2.1-11.75,4.49-23.5,5.62-35.35,2.16-22.72,3.32-45.52,5.24-68.26,2.64-31.19,20.46-49.9,51.53-54.06,9.07-1.21,18.26-1.47,27.27-2.15ZM153.01,390.53c-.58-.2-1.16-.4-1.73-.59.46.69.77,1.6,1.4,2.05,16.29,11.59,32.56,23.21,49.04,34.52,1.31.9,4.58.21,6.22-.85,11.63-7.51,23.18-15.17,34.53-23.09,5.14-3.58,9.78-7.88,14.84-12-8.71-8.82-13.05-18.54-11.44-30.12.55-3.92-.13-6.61-2.48-9.81-12.27-16.73-7.22-34.06,11.97-41.81,5.13-2.07,10.44-3.7,15.6-5.72,9.91-3.88,11.95-7.78,10.28-18.16-1.31-8.2-2.79-16.43-3.27-24.7-1.02-17.66-1.24-35.37-2.19-53.03-.64-11.92-.97-11.7-12.71-13.89-22.14-4.14-43.22-10.47-57.51-29.83-.17-.23-.78-.15-1.18-.2-18.94,17.95-25.19,21.7-45.96,27-5.77,1.47-11.64,2.89-17.55,3.46-5.53.54-7.45,2.85-7.87,8.34-2.25,29.32-4.8,58.61-7.4,87.89-.48,5.44,1.36,9.22,6.38,11.18,6.74,2.63,13.6,4.97,20.37,7.52,15.17,5.71,22.37,19.81,15.6,34.42-3.94,8.49-6.48,15.94-6.16,25.66.24,7.15-5.64,14.51-8.8,21.77ZM248.74,349.58c7.73-3.78,14.83-7.59,22.2-10.79,14.96-6.49,20.22-20.44,13.3-35.39-8.68,3.41-17.34,6.79-25.97,10.22-17.13,6.81-20.82,21.12-9.53,35.96ZM158.9,350.02c10.55-11.71,6.81-29.71-8.48-35.8-7.7-3.07-15.5-5.91-23.41-8.4-1.54-.48-4.88.61-5.45,1.85-4.16,9.24,2.09,25.29,11.4,29.89,8.5,4.2,17.08,8.21,25.93,12.45ZM209.23,156.75c5.64,17.49,42.66,32.9,62.08,29.82-7.87-21.5-32.65-33.52-62.08-29.82ZM137.73,186.79c21.19,2.84,56.08-14.09,61.98-30.07-29.36-2.93-53.56,7.36-61.98,30.07Z"/>
        <path d="M205.79,149.16c-9.01.68-18.2.93-27.27,2.15-31.06,4.16-48.89,22.87-51.53,54.06-1.92,22.74-3.08,45.55-5.24,68.26-1.13,11.86-3.52,23.61-5.62,35.35-3.24,18.15,3.32,29.57,20.8,35.63,15.35,5.33,21.25,14.18,18.27,27.55-.41,1.85-1.1,3.68-1.95,5.38-4.43,8.8-7.54,9.56-14.78,2.97-21.46-19.53-38.78-42.44-54.04-67-5.7-9.16-4.82-18.61-1.97-28.36,5.62-19.23,11.83-38.33,16.32-57.82,3.58-15.53,5.31-31.52,7.26-47.37,2.2-17.87,10.82-30.21,27.6-37.58,46.99-20.61,93.74-21.02,140.79-.26,15.13,6.68,24.47,17.45,26.94,33.83,2.04,13.49,2.89,27.23,5.82,40.51,4.68,21.18,9.23,42.58,16.5,62.94,6.22,17.43,4.56,31.75-6.75,45.89-15.04,18.81-28.72,38.75-47.11,54.7-7.64,6.63-9.98,6.34-14.7-2.67-7.37-14.08-2.76-26.11,12.18-31.73,2.59-.98,5.22-1.86,7.82-2.83,11.18-4.15,17.59-12.46,16.73-24.41-.85-11.86-3.89-23.56-4.89-35.42-1.74-20.6-2.63-41.28-3.94-61.92-.42-6.6-.75-13.22-1.62-19.77-3.73-28.01-20.59-45.44-48.69-49.88-8.81-1.39-17.82-1.5-26.95-2.22Z"/>
        <path d="M153.01,390.53c3.15-7.27,9.04-14.62,8.8-21.77-.33-9.71,2.22-17.17,6.16-25.66,6.78-14.61-.43-28.71-15.6-34.42-6.77-2.55-13.63-4.89-20.37-7.52-5.02-1.96-6.86-5.74-6.38-11.18,2.6-29.29,5.16-58.58,7.4-87.89.42-5.48,2.34-7.8,7.87-8.34,5.91-.57,11.77-1.99,17.55-3.46,20.77-5.29,27.02-9.05,45.96-27,.4.06,1.01-.03,1.18.2,14.29,19.36,35.37,25.69,57.51,29.83,11.74,2.19,12.07,1.98,12.71,13.89.94,17.67,1.16,35.37,2.19,53.03.48,8.27,1.96,16.5,3.27,24.7,1.66,10.38-.37,14.29-10.28,18.16-5.16,2.02-10.47,3.64-15.6,5.72-19.19,7.75-24.24,25.09-11.97,41.81,2.35,3.2,3.02,5.89,2.48,9.81-1.62,11.58,2.73,21.31,11.44,30.12-5.05,4.12-9.7,8.41-14.84,12-11.36,7.92-22.9,15.58-34.53,23.09-1.64,1.06-4.91,1.75-6.22.85-16.48-11.31-32.75-22.93-49.04-34.52-.63-.45-.94-1.36-1.4-2.05.58.2,1.16.4,1.73.59ZM231.6,232.18c-3.38.7-6.27,1.3-9.16,1.9,8.37-12.15,19.51-12.11,30.4-7.22,6.06,2.72,9.5,1.36,11.77-3.38,1.76-3.68,2.05-8.2,2.37-12.4.42-5.42-1.95-8.3-7.92-9.14-15.54-2.19-30.4-6.66-43.18-16.34-3.71-2.81-7.26-5.82-11.23-9.02-10.78,9.56-22.36,17.42-36.17,21.29-6.76,1.9-13.58,3.66-20.46,5.09-3.73.78-5.62,2.41-5.51,6.33.42,15.08.26,30.2,1.32,45.24.67,9.48,4.01,18.88,11.65,24.91,11.81,9.31,24.21,17.97,36.96,25.96,7.66,4.8,16.47,4.19,24.43-.46,7.16-4.18,14.02-8.87,21.07-13.24,24.76-15.36,29.1-39.57,28.93-64.12-4.22,1.87-8.84,3.86-13.4,5.98-.89.41-1.55,1.33-2.27,2.06-7.2,7.38-15.05,6.05-19.61-3.44Z"/>
        <path d="M248.74,349.58c-11.29-14.84-7.6-29.15,9.53-35.96,8.64-3.43,17.29-6.81,25.97-10.22,6.93,14.96,1.66,28.91-13.3,35.39-7.37,3.2-14.47,7.01-22.2,10.79Z"/>
        <path d="M158.9,350.02c-8.85-4.24-17.43-8.25-25.93-12.45-9.3-4.6-15.56-20.65-11.4-29.89.56-1.25,3.91-2.34,5.45-1.85,7.9,2.49,15.71,5.33,23.41,8.4,15.28,6.09,19.03,24.09,8.48,35.8Z"/>
        <path d="M209.23,156.75c29.43-3.69,54.21,8.32,62.08,29.82-19.42,3.08-56.43-12.33-62.08-29.82Z"/>
        <path d="M137.73,186.79c8.41-22.71,32.62-33.01,61.98-30.07-5.9,15.99-40.79,32.92-61.98,30.07Z"/>
        <path class="cls-1" d="M231.6,232.18c4.55,9.48,12.4,10.82,19.61,3.44.72-.73,1.38-1.65,2.27-2.06,4.56-2.13,9.18-4.11,13.4-5.98.17,24.55-4.17,48.77-28.93,64.12-7.05,4.37-13.91,9.06-21.07,13.24-7.95,4.64-16.76,5.26-24.43.46-12.75-7.98-25.15-16.65-36.96-25.96-7.65-6.03-10.99-15.43-11.65-24.91-1.06-15.04-.9-30.16-1.32-45.24-.11-3.93,1.78-5.55,5.51-6.33,6.87-1.43,13.69-3.19,20.46-5.09,13.81-3.87,25.39-11.73,36.17-21.29,3.96,3.19,7.52,6.21,11.23,9.02,12.77,9.68,27.63,14.15,43.18,16.34,5.97.84,8.34,3.72,7.92,9.14-.32,4.2-.61,8.72-2.37,12.4-2.27,4.74-5.71,6.11-11.77,3.38-10.89-4.89-22.04-4.93-30.4,7.22,2.89-.6,5.78-1.2,9.16-1.9ZM144.01,223.1c1.44,9.41,3.33,10.7,11.97,10.37,1.44-.05,3.15,1.46,4.38,2.63,3.84,3.68,11.19,5.15,14.38,1.39,3.87-4.57,7.85-5.33,13.55-3.97-1.88-2.87-3.87-5.2-6.33-6.78-7.34-4.7-15.23-3.44-22.73-.76-5.77,2.06-10.87,3.63-15.21-2.89ZM222.01,275.43c-5.91.37-11.48.97-17.06.99-5.58.02-11.17-.55-17.15-.88,9.43,16.85,23.38,16.74,34.21-.11ZM191.12,222.06c.16-.56.32-1.13.47-1.69-12.7-11.86-34-12.85-43.36-2.35,7.02-1.21,14.52-3.98,21.69-3.32,7.23.67,14.15,4.76,21.2,7.35ZM219.64,221.6c6.87-2.52,13.59-6.42,20.65-7.18,7.11-.76,14.55,1.6,21.84,2.58-11.18-10.05-31.9-8.38-42.49,4.6Z"/>
        <path d="M144.01,223.1c4.33,6.51,9.44,4.95,15.21,2.89,7.5-2.68,15.39-3.94,22.73.76,2.47,1.58,4.45,3.91,6.33,6.78-5.7-1.36-9.68-.6-13.55,3.97-3.19,3.76-10.54,2.29-14.38-1.39-1.22-1.17-2.94-2.69-4.38-2.63-8.63.33-10.53-.97-11.97-10.37Z"/>
        <path d="M222.01,275.43c-10.84,16.84-24.78,16.96-34.21.11,5.99.33,11.57.9,17.15.88,5.57-.02,11.15-.62,17.06-.99Z"/>
        <path d="M191.12,222.06c-7.05-2.59-13.97-6.68-21.2-7.35-7.17-.67-14.66,2.11-21.69,3.32,9.36-10.5,30.67-9.52,43.36,2.35-.16.56-.32,1.13-.47,1.69Z"/>
        <path d="M219.64,221.6c10.59-12.98,31.32-14.65,42.49-4.59-7.29-.99-14.74-3.35-21.84-2.58-7.06.76-13.78,4.66-20.65,7.18Z"/>
      </g>
    </g>
  </g>
</svg>