<?xml version="1.0" encoding="UTF-8"?>
<svg id="Layer_1" xmlns="http://www.w3.org/2000/svg" version="1.1" viewBox="0 0 100 108.5">
  <!-- Generator: Adobe Illustrator 29.8.2, SVG Export Plug-In . SVG Version: 2.1.1 Build 3)  -->
  <defs>
    <style>
      .st0 {
        fill: #730e02;
        fill-rule: evenodd;
      }
    </style>
  </defs>
  <path class="st0" d="M23.6,37.2c.2-.6.8-1,1-1.6.2-1,.3-1.8.8-2.6l.2-.2c.2-.5.3-1,.5-1.4,0,0,.2,0,.2-.2,0-.3.2-.3.2-.5s0-.5.2-.6l.3-.2c.2-.2.2-.5.3-.6.3-.2.6-.3.8-.5,1.1-1.1,2.2-2.6,3.4-3.5.3-.2.5-.5.6-.6s.2-.3.3-.3h.3v-.2c.2-.2.3,0,.5-.2l.2-.3c.2-.2.3-.2.5-.2s0-.2.2-.2l.5-.2.2-.3c.3-.2.5-.2.8-.3.2-.2.3-.3.5-.5.2-.2.2-.3.3-.3h.3c.2-.2.2-.3.3-.3h.3v-.2c.2,0,.6-.2,1-.2.6-.2,1.8-.3,2.6-.5,1.9-.3,3.2-.6,5.4-.5,0,0,0,.2.2.2h.6c.3,0,.3-.2.6-.2s.5.2.8.2.3-.2.6-.2h1.8c1,0,2.1.3,3,.3,1.3.2,2.4,0,3.2.2,0,0,0,.2.2.2h.5c.2,0,.3.2.5.2s.6.3,1,.5.6.2,1,.3c.2,0,.3.3.3.3h.3q.2.2.3.2c.2,0,.3.2.5.2s.3.2.6.3h.3c.3.3,1,.5,1.6.6,0,0,0,.2.2.2s.3.3.5.3.2.2.3.2l.5.5c.2.2.3,0,.5.2.2,0,.2.3.2.3.2.2.5.2.6.3l.3.3c.6.5,1.8,1.6,2.4,2.4l.5.5c.2.2.2.5.3.6l.5.5c1.1,1.4,1.8,2.4,2.4,4.2.2.5.3,1,.5,1.6.2.2.3.5.3.6.2.5.3,1.1.5,1.6v.5c0,.2.2.2.2.3.2,1-.2,2.1-.2,3.2-.2,1.4-.2,2.6-.3,3.8v.3c-.2.2-.2.5-.3,1-.2.3-.3.6-.3.8-.2.3,0,.6-.2,1,0,0-.2,0-.2.2-.2.5-.2.8-.3,1.1v.3c-.3.3-.5,1.3-.6,1.8,0,.2-.3.2-.3.3-.2.3-.3.5-.5.8s-.3.5-.5.8-.3.5-.5.8c0,.2-.2,0-.2.2,0,.5-1,1-1.4,1.4s-.2.3-.2.5-.3.2-.3.3c-.3.3-.5.6-.8.8-.2,0-.2.2-.2.2-.2.2-.5.3-.6.3l-.3.2c-.2,0-.3.2-.5.2-.2.2-.2.5-.3.5-.2.2-.3,0-.5.2-.2,0,0,.2-.2.2l-.3.2c-.2.2-.2.3-.3.3-.2.2-.5,0-.6.2-.2,0-.2.3-.3.3-.2.2-.3.2-.5.3-.2,0-.3.3-.3.3-.2.2-.5,0-.6.2-.2,0-.3.3-.3.3h-.3c-.2,0-.3.2-.5.2s-.2.2-.2.2c-1,.2-2.1.2-3.2.3-1.4.2-2.6.6-4,.3,0,0,0-.2-.2-.2h-.2l-.2-.2c-.8-.2-1.8-.3-2.6-.5-.2,0-.6-.3-.8-.3h-.3c-.2,0-.3-.3-.3-.3-.2-.2-.3,0-.5-.2-.2,0-.2-.3-.3-.3-.2-.2-.3,0-.5-.2l-.6-.6c-.2-.2-.3-.2-.5-.2s0-.2-.2-.2h-.2l-.6-.6c-.2-.2-.2-.3-.3-.3-.2-.2-.3,0-.5-.2l-.6-.6c-.5-.5-.6-.5-1-1.1,0-.2-.2,0-.2-.2,0-.3-.3-.3-.3-.6s-.3-.5-.5-.6c-.5-.6-1.1-2.1-1.4-2.9-.3-1.3-.5-2.7-.3-4,.2-.8.6-1.6,1.1-2.6.2-.3.3-.6.5-1,.2-.2.2-.3.3-.5.2-.2.2-.3.3-.5l.2-.5c.3-.3.6-.8,1-1.4l.3-.2v-.3c.3-.3.6-.5,1-.8.2-.2.3-.5.6-.6l.5-.2v-.2h.3s.5-.5.8-.5.6-.2,1-.3c1.1-.3,2.1-.5,3-.3.5,0,1,.2,1.4.3.2,0,0,.2.2.2.3,0,.5.5.6.6s.5.2.5.3c.2.2.2.5.2.6,0,0,.2,0,.2.2,0,0-.2,1.1,0,1.1.5.5-.3,1.6-.6,2.1-.5.5-1.1.8-1.6,1.4-.5.5-.8,1.1-1.1,1.8,0,.2-.2,0-.2.2l-.2.3c-.2.2-.3.3-.3.6-.2,1-.3,2.1.3,3l.2.5h.2v.3h.2v.3c.3.3.5.6,1,1,.2,0,.2.2.3.2.3.2.8.8,1.4.8.6.2,1.3,0,1.9-.2h.3c1.3-.3,2.7-.6,3.8-1.6.2-.2.3-.5.5-.6l.5-.5c.3-.5.6-1,.8-1.4.2-.2.5-.3.5-.5v-.3h.2v-.3c.5-.3.6-1.8,1-2.9.3-1,.6-1.9.8-2.7s.2-1.6.2-2.4.2-1.6,0-2.2-.8-1.8-1.4-2.6c-.2-.2-.3-.2-.3-.3v-.3l-.3-.2c1.1,0,1.1-.2,1.1-.3l-.3-.2c-.2-.2-.2-.5-.3-.6-.5-.5-1.1-1-1.6-1.6-.2-.3-.5-.5-.6-.6-.5-.3-1.6-.8-2.4-1.1-.5-.2-1-.3-1.4-.5,0,0,0-.2-.2-.2-.3,0-.5,0-.8-.2-1.1-.5-3.8-.6-5.7-.6s-5.4-.3-7,.6c-.2,0,0,.2-.2.2-.3,0-.6.3-.8.5-.8.6-1.9,1.6-2.7,2.6-.3.5-1.1.6-1.6,1.1s0,.5-.2.6c0,.2-.3.3-.3.3-.2.2,0,.3-.2.5,0,.2-.3.3-.3.3-.2.2,0,.3-.2.5,0,.2-.3.3-.3.3-.2.2,0,.3-.2.5,0,.2-.3.3-.3.3,0,.2,0,.8-.2.8h-.2c-.2.5-.3,1.1-.5,1.8v.3h-.2v.3q-.2.2-.2.3l-.2.5h-.2c-.2.3-.2.6-.2.8s-.3.3-.3.3v.5s-.2,0-.2.2v.5c-.2,0-.2.3-.3.8-.2.8-.2,2.2-.3,3.4,0,.3-.3.6-.3,1-.2.8-.2,1.4,0,2.6,0,.5.2.8.2,1.1,0,0,.2,0,.2.2,0,.6.3,1.4.5,2.1.3,1,.8,1.9,1.4,2.7.2.2.3.2.3.3v.3h.2c.2.3.2.8.3,1,0,.2.3.3.3.3.2.2.2.3.2.5.3.6.5,1.3.8,1.8.5.8,1.1,1.6,1.9,2.4s.5.3.6.5c.2.2.2.5.3.6v.3h.2v.3c.2,0,.3.5.5.6h.3l.2.3h.3l.2.3h.3l.2.3c.2.2.3,0,.5.2l.2.3h.3c.2,0,.3.3.3.3.2,0,.2.2.3.2.2.2.3.2.5.2s.2.2.2.2c1.3.6,3.2.8,4.6,1.4.5.2,1,.5,1.4.5.6.2,1.4,0,2.2.2.2,0,.3.2.5.2,2.4.3,6.2.2,9.1-.2,1-.2,1.8-.2,2.7-.3h.5c.3-.2,1.3-.3,2.1-.3s1.3,0,1.8-.2c1-.3,1.8-.8,2.6-1.4.8-.5,1.6-1.1,2.9-1,.8-.5.3-.2.6-.3.2-.2.3-.3.5-.5h.3c.3-.3,1-1,1.4-1.4v-.3c.3-.2.5-.5.8-.8s.6-.8.8-1.1c.2-.2.3-.3.5-.5.2-.2.2-.5.3-.6.2-.2.3-.3.5-.5.2-.2.2-.5.3-.6.2-.2.5-.3.5-.5v-.3h.2v-.3h.2c.2-.3.5-.8.6-1.1,0-.2.2,0,.2-.2,0-.3.3-.5.5-.6v-.3h.2v-.3c.3-.3.5-.5.6-1,.5-1,1-1.8,1.4-2.7.2-.5.3-1.1.5-1.6,0,0,.2,0,.2-.2s.2-.6.3-.8v-.3c.5-.5.5-2.2.8-3.2,0,0,.2,0,.2-.2,0-.3.2-.6.3-1l.2-.5q.2-.2.2-.3c.2-.3.5-1,.6-1.6.2-.8.2-1.6.3-2.4s.2-2.1,0-3c-.2-.5.2-.6.2-1.4s-.2-.3-.2-.8c0-.8,0-1.9-.2-2.7-.2-.5-.5-1.3-.6-1.9-.2-.3-.2-.6-.3-.8-.2-.3-.2-.6-.3-.8,0-.2-.3-.3-.3-.3-.2-.2-.2-.3-.2-.5-.3-.6-.6-1.8-1-2.6,0-.2-.2-.5-.2-.5l-.3-.2v-.3h-.2v-.3h-.2c0-.2,0-.3-.2-.5l-.3-.2v-.3h-.2v-.3c-.3-.2-.8-1-1-1.4-.2-.2,0-.3-.2-.5,0-.2-.3-.2-.3-.2-.3-.5-.5-.8-.8-1.1s-.3-.3-.5-.5c-.3-.3-.8-.8-1-1-.5-.3-1.1-.6-1.8-1-.2,0-.2-.3-.3-.3-.5-.3-1.4-.8-2.1-1.1-.2-.2-.2-.3-.3-.3h-.3c-.2-.2-.2-.5-.3-.5-.2-.2-.3,0-.5-.2-.2,0-.3-.3-.3-.3h-.3c-.2-.3-1.1-.5-1.8-.6-.3-.2-.8,0-1-.2,0,0,0-.2-.2-.2-.5,0-.8-.3-1.4-.5-.6-.2-1.3-.5-1.9-.6h-.3v-.2c-1-.3-2.2-.6-3.4-.8-.6-.2-1.3-.2-1.9-.3,0,0,0-.2-.2-.2-.3,0-.8-.2-1.4-.3s-1.3-.2-1.9-.3c-1.1-.2-2.4-.3-4-.5,0,0,0-.2-.2-.2h-.6c-1.3-.2-3-.5-4.6-.6-2.4-.3-4.5-.3-6.4.3h-.3c-.2.2-.3.3-.5.3h-.3v.2c-.5.2-.8.2-1.4.3,0,0,0,.2-.2.2-.3,0-.6.2-1,.3-.5.2-1.1.3-1.8.5-1.8.6-3.5,1.1-5.1,1.9s-.6.5-1,.5-.3.3-.6.3l-.3.2c-.2.2-.2.3-.3.3h-.3c-.2.2-.3.3-.6.5-.2,0,0,.2-.2.2l-.3.2c-.2,0-.2.3-.3.3-.3.2-.6.3-.8.5-.3.2-.5.5-.8.6-.2.2-.5.5-.6.6-.5.5-1.3.8-1.8,1.1-.2.2-.3.5-.5.6-.3.3-.8.6-1.1,1.1-.5.5-1,1.1-1.6,1.8-.2.2-.3.5-.5.6-.2.2-.3.3-.5.5-.2.2,0,.3-.2.5,0,.2-.3.2-.3.2-.2.2,0,.3-.2.5l-.3.2c-.2.2,0,.3-.2.5s-.6.3-.8.6c-.2.2,0,.3-.2.5l-.3.2c-.2.2-.2.5-.3.6-.2.2-.5.2-.5.5s-.3.2-.3.3v.3h-.2c-.2.2,0,.5-.2.6,0,.2-.3.3-.3.3-.2.3-.2.8-.3,1,0,0-.2,0-.2.2s-.2.6-.3.8c-.2.3-.2.6-.3,1-.3.6-.5,1.3-.8,2.1-.2.3-.2.8-.3,1,0,.2-.3.3-.3.3-.3.6-.3,1.9-.5,2.9,0,0-.2,0-.2.2,0,.5-.2.6-.2,1.4v.8s-.2,0-.2.2c0,1.4-.2,3.2-.3,4.6,0,.5-.2,1.1-.2,1.8s.2,1.1.2,1.6-.2.8-.3,1.4c-.3,1.8-.2,3.8,0,6.2v1.1c0,.3.2.3.2.5,0,0-.2,0-.2.2v.2c0,.3-.3.6-.3.8-.2,1.3.3,1.8.6,2.9.2.6.3,1.4.5,2.1,0,0,.2,0,.2.2.2.3.3.6.3,1,.2.3.3.5.3.8.2.6.3,1.8.5,2.4,0,0,.2,0,.2.2s0,.3.2.5c.5.8,1,2.1,1.4,3,0,0,.2,0,.2.2.2.5.3,1,.5,1.6.2.3.5.8.5,1s.3.3.3.5.3.3.3.5.3.5.5.6l.3.2c.2.2.2.5.3.6s.5.2.5.3c.2.2,0,.3.2.5.3.3.8.6,1.1,1.1.2.2.5.5.6.8s.6.8,1,1.1c.3.3,1,.8,1.4,1.1.2.2.2.3.3.3h.3l.2.3c.2.2.3,0,.5.2l.2.3c.2.2.5.2.6.3.3.2.5.6.6.8h.3c.5.6,1.4,1.6,2.2,2.1.5.3,1,.3,1.6.5.5.2,1,.5,1.4.6.2,0,0,.2.2.2s.2.3.3.3c.2.2.5,0,.8.2.5.2,1,.3,1.6.5,1,.3,1.9,1,2.7,1.4,1.8,1,3.7,1.4,5.7,2.2,1.4.5,2.9,1.3,4.5,1.6.6.2,1.3,0,1.9.2.5.2,1.1.3,1.8.3s.6-.2,1,0c0,0,0,.2.2.2s.3.3.5.3l.3.2c.2,0,.3.2.5.2s.3.3.3.3c.2.2.3,0,.5.2.6.5,1,1.3,1,1.9s.2,1,0,1.6c0,0-.2,0-.2.2l-.2.5-.3.2v.3c0,.2-.3.3-.5.5-.3.3-.6.8-1.1,1.1l-.2.2c-.5.2-1.1,0-1.8.2-.8,1.6-1.4,1.9-1.8,1.9-1.3,0-2.9-.5-4.5-.6-.6-.2-1.1-.3-1.8-.3s-1-.2-1.4-.3c-.3-.3-.6-.3-1-.5-.2-.2-.3-.2-.5-.2s-.2-.2-.2-.2c-.3-.2-.6,0-1-.2,0,0,0-.2-.2-.2-.3-.2-.5-.3-.8-.3-.3-.2-.5-.3-.8-.3-.3-.2-.5,0-.8-.2-.2,0-.3-.3-.3-.3h-.5c-.2,0-.3-.3-.3-.3-.5-.2-.5,0-1-.2,0,0,0-.2-.2-.2h-.2c-.2,0-.3-.3-.3-.3-.8-.3-1-.3-1.1-.3-.5-.2-1.1-.5-1.9-.6,0,0,0-.2-.2-.2-.3,0-.5,0-.6-.2-.2,0-.3-.3-.3-.3-.3-.2-1-.3-1.4-.5-.2-.2-.2-.3-.3-.3h-.3c-.2-.2-.5-.3-.8-.5-.3-.2-.6-.2-1-.3-.2,0-.3-.3-.3-.3h-.3v-.2c-.3-.2-.6-.2-.8-.3-.2,0-.3-.3-.3-.3h-.5c-.2,0-.3-.3-.3-.3-.3-.2-.6-.2-1-.3,0,0,0-.2-.2-.2-.3,0-.5-.3-.8-.5-.2-.2-.5-.3-.6-.3s-.3-.3-.5-.5h-.3l-.2-.3h-.3c-.2-.2-.3-.5-.6-.6-.3-.2-.6-.6-.8-.8h-.3c-.2-.3-.6-.8-1-1.1h-.3l-.2-.3h-.3c-.2-.2-.3-.5-.6-.6-.5-.3-.8-.8-1.4-1.1-.3-.3-1-.6-1.4-1.1-.3-.3-.8-.8-1-1.1,0-.2-.3-.5-.5-.6-.3-.3-.6-.6-.8-.8-.3-.3-.5-.6-.6-1-.3-.3-.6-.5-.8-.8-.3-.3-.5-.6-.6-1s-.5-.6-.6-.8c-.3-.6-.6-1.6-1.1-2.4-.2-.2-.2-.3-.2-.5s-.2-.2-.2-.2c-.2-.3,0-.5-.2-.6,0-.2-.3-.3-.3-.3-.2-.3-.2-.5-.2-.6-.2-.3-.2-.5-.3-.8,0-.2-.2-.3-.3-.6-.2-.5-.2-.8-.3-1.1,0-.2-.3-.3-.3-.3v-.3c-.2-.6-.6-1.8-.8-2.6-.2-.5,0-1-.2-1.4,0,0-.2,0-.2-.2v-.2c0-.2-.2-.3-.2-.5-.2-.6-.6-1.8-.8-2.6-.2-.6-.3-1.3-.5-2.1-.2-.5-.2-1.9-.2-3s-.2-1.8-.2-2.6c0-2.1.3-4,.2-6.2,0,0-.5-.6-.2-.8.5-.3,0-1.6,0-2.2s.3-.8.3-1.1v-.6c.2-.6.3-2.1.5-3,.2-1.4.2-2.6.3-4,0-.3.2-1,.2-1.1,0,0,.2,0,.2-.2v-.5c.2-.2.2-.5.3-.8.2-.5.3-1,.5-1.4.2-.5.3-1.1.5-1.6,0,0,.2,0,.2-.2,0-.3.3-.3.3-.6s.5-1,.6-1.4v-.3c.2-.2.3-.8.5-1.1.5-.6.6-2.2,1-3,0-.2.2,0,.2-.2s.3-.2.3-.3v-.3h.2v-.3h.2v-.3h.2v-.3h.2l.5-1c0-.2.2,0,.2-.2v-.2c.2-.2.3-.3.5-.5.2-.2.2-.5.3-.6.2-.2.3-.3.5-.5.2-.2.2-.5.3-.6l.5-.5c.2-.2.2-.5.3-.6l.5-.5v-.3c.5-.3,1-.8,1.4-1.4.3-.3.5-.6.8-1l.5-.5c.3-.3.5-.8.8-1.1.6-.8,1.3-1.4,1.9-2.1l.5-.5c.2-.2.5-.2.6-.3.3-.2.6-.8,1-1,.3-.3.8-.6,1.1-.8s.5-.5.8-.6c.2-.2.6-.3.8-.5.2-.2.3-.5.5-.5h.3v-.2h.3v-.2l1-.5c.2,0,0-.2.2-.2h.2c.2-.2.3-.3.5-.5h.3q.2-.2.3-.3c.2-.2.3-.3.5-.5.2-.2.5-.2.6-.3.2,0,0-.2.2-.2.3,0,.5-.3.6-.5h.3v-.2h.3v-.2h.3v-.2h.3v-.2h.3v-.2h.3v-.2h.3c.3-.3,1.4-.8,2.1-1h.3v-.2h.3c.2-.2,1-.5,1.6-.6.5-.2,1.1-.3,1.6-.5.3-.2.8-.2,1.1-.3.5-.2,1.8-.5,2.7-.6.3,0,.5-.2.8-.2,0,0,0-.2.2-.2h.5c.2-.2.5,0,1-.2,0,0,0-.2.2-.2h.6s0-.2.2-.2h.5c.8-.2,2.7-.3,4-.2,0,0,0,.2.2.2.5,0,1.4,0,2.1.2h.5c.5.2,1.9.2,2.6.3.3.2.3,0,.5.2.3.3,2.6,0,3.4,0s1.1.3,1.8.3c.5.2,1.1,0,1.8.2,0,0,0,.2.2.2h.6s0,.2.2.2h.5v.2c.3,0,.6.2.8.2.8.2,2.1.5,3.2.6.5.2,1,.2,1.8.2s.5.2.6.2c.8.2,1.6.2,2.2.3,0,0,0,.2.2.2.5,0,1.3.3,1.8.5.3.2.6,0,.8.2,0,0,0,.2.2.2.5,0,.8.3,1.1.5h.3v.2h.3v.2c.3.2,1,.2,1.1.3l.2.3h.3v.2h.3v.2h.3v.2h.3v.2h.3v.2h.3c.2.3.6.3,1.1.5h.3c.2.2.5.2.8.3,0,0,0,.2.2.2.3,0,.3.3.6.3s.3.3.6.3.2.3.3.3h.3v.2h.3c.2.2.2.5.5.5h.2c.2.2.3.3.5.5.3.2.6.3,1,.5.2,0,0,.2.2.2s.2.3.3.3c.3.2.5.2.8.5.2.2.3.3.5.5.3.3.6.8,1,1h.3c.2.3.5.5.8.8.5.5,1,.8,1.4,1.4.2.2.5.3.6.6.2.2,0,.3.2.5.2.3.5.5.6.6s.3.2.3.3c.2.2.3.6.5,1,.2.3.3.5.5.8l.3.3c.3.6.6,1.1,1,1.8,0,.2.2,0,.2.2l.2.3c0,.2.3.2.3.3.2.2,0,.3.2.5,0,.2.3.3.3.3.3.6.5,1.3.8,1.9,0,.2,0,.3.2.5,0,.2.3.3.3.3.2.2,0,.3.2.5,0,.2.3.3.3.3v.3c0,.2.2.3.3.6,0,.2.2.3.2.5s.3.3.3.3c.2.3.2.8.2,1,0,0,.2,0,.2.2.2.6.5,1.4.6,2.4.3.8.5,1.6.6,2.7.2,1,.3,2.7.2,4.3v.5c-.2,1-.3,3-.5,4.3,0,.3,0,.6-.2.8,0,.2-.2,0-.2.2,0,.3-.5,1-.6,1.6-.2.5-.3,1-.3,1.4-.2.5,0,.8-.2,1.4,0,.2-.2.2-.2.3,0,.3,0,.8-.2,1,0,0-.2,0-.2.2,0,.5-.6,1.3-.8,1.9-.2.3,0,.5-.2.6,0,.2-.3.3-.3.3-.2.5-.3,1.1-.5,1.8,0,0-.2,0-.2.2-.2.3-.2.5-.3.8,0,.2-.2.3-.2.5-.3.6-.6,1.3-1,1.9s-.6,1.4-1,2.1c0,.2-.2,0-.2.2l-.2.3c0,.2-.3.2-.3.3-.2.3-.3.6-.5.8-.5.6-.8,1.3-1.1,1.9s-.3.6-.5,1c0,.2-.3.2-.3.3s0,.3-.2.5-.5.2-.5.3c-.2.2,0,.3-.2.5l-.3.2c-.2.2-.2.5-.3.6-.2.2-.5.2-.5.3-.2.2,0,.3-.2.5s-.5.2-.5.3c-.2.2,0,.3-.2.5-.5.5-1,1-1.6,1.6-.3.3-.5.6-.6.8s-.3,0-.5.2c-.2.2-.2.3-.3.3-.8.6-1.4,1.4-2.4,2.2-.3.3-.6.6-1,.8-.2,0-.2.2-.2.2-.2,0-.3,0-.5.2l-.2.3c-.2.2-.3.2-.6.3-.2.2-.3.2-.5.3-.3.2-.5.3-.8.5-.3.2-.5.3-1.1.5-.3.2-.6,0-.8.2,0,0,0,.2-.2.2-.5,0-.8.3-1.1.5-2.9,1.1-6.4,1.9-10.1,2.2-.6,0-1.3.2-1.9.2s-.8-.3-1.4-.2c-.2,0-.2.2-.3.2-.3,0-2.7-.3-2.9,0-.2.2-.3,0-.8,0-2.6-.2-5-.3-7.3-.8-.5-.2-1.1-.2-1.8-.3-.5-.2-1.1-.2-1.8-.3,0,0,0-.2-.2-.2-.3,0-.3-.2-.5-.2-.3-.2-.6-.2-.8-.2-.3-.2-.6-.2-.8-.2,0,0,0-.2-.2-.2h-.5v-.2c-.6-.2-1.1-.2-1.8-.3,0,0,0-.2-.2-.2-.3,0-.8-.3-1.1-.5-.6-.3-1.1-.5-1.8-.8-.2,0,0-.2-.2-.2-.3,0-.3-.3-.6-.3s-.2-.3-.3-.3h-.3v-.2h-.3v-.2h-.3v-.2h-.3v-.2h-.3v-.2h-.3q-.2-.2-.3-.3c-.2-.2-.5-.2-.6-.3-.2-.2-.3-.3-.5-.5-.2-.2-.5-.2-.6-.3-.2-.2-.3-.3-.5-.5h-.3c-.2-.3-.3-.3-.6-.5-.2,0,0-.2-.2-.2h-.2l-.5-.5c-.2-.2-.3-.3-.5-.3s-1-.8-1.1-1c-.3-.3-.8-.5-1-.8l-.3-.3v-.3c-.2-.2-.5-.2-.5-.5s-.5-.3-.5-.6-.3-.5-.5-.6c-.2-.2,0-.3-.2-.5,0-.2-.3-.2-.3-.2v-.3c-.8-.6-1.1-2.2-1.8-3.4-.2-.2-.3-.2-.3-.3v-.3h-.2v-.3h-.2v-.3c-.5-.5-1-1.1-1.4-2.1v-.3h-.2v-.3c-.2-.2-.3-1-.5-1.4v-.3c-.3-.3-.5-2.1-.5-2.9s-.2-1-.2-1.6c-.2-1.4,0-3,.2-4.6.2-1.8.2-3.4.6-4.8v-.3c.3-.2.5-1.4.6-2.1.2-.6.5-1.3.6-1.9,0,0,.2,0,.2-.2,0-.3.2-.3.2-.6.2-2.7.2-3,.5-3.2Z"/>
</svg>