<?xml version="1.0" encoding="UTF-8"?>
<svg id="Layer_1" xmlns="http://www.w3.org/2000/svg" version="1.1" viewBox="0 0 520 520">
  <!-- Generator: Adobe Illustrator 29.8.1, SVG Export Plug-In . SVG Version: 2.1.1 Build 2)  -->
  <defs>
    <style>
      .st0 {
        fill: #730e02;
      }

      .st1 {
        fill: #fff;
      }
    </style>
  </defs>
  <g>
    <polygon class="st0" points="223.4 348.3 83.1 436.9 171.7 296.6 9.8 260 171.7 223.4 83.1 83.1 223.4 171.7 260 9.8 296.6 171.7 436.9 83.1 348.3 223.4 510.2 260 348.3 296.6 436.9 436.9 296.6 348.3 260 510.2 223.4 348.3"/>
    <path d="M260,12.3l35.9,158.8.3,1.5,1.3-.8,137.6-86.9-86.9,137.6-.8,1.3,1.5.3,158.8,35.9-158.8,35.9-1.5.3.8,1.3,86.9,137.6-137.6-86.9-1.3-.8-.3,1.5-35.9,158.8-35.9-158.8-.3-1.5-1.3.8-137.6,86.9,86.9-137.6.8-1.3-1.5-.3L12.3,260l158.8-35.9,1.5-.3-.8-1.3L84.9,84.9l137.6,86.9,1.3.8.3-1.5L260,12.3M260,7.4l-36.9,163.5L81.4,81.4l89.5,141.7L7.4,260l163.5,36.9-89.5,141.7,141.7-89.5,36.9,163.5,36.9-163.5,141.7,89.5-89.5-141.7,163.5-36.9-163.5-36.9,89.5-141.7-141.7,89.5L260,7.4h0Z"/>
  </g>
  <g>
    <polygon class="st1" points="187.7 108.1 186.9 107.3 185.8 107.8 186.3 106.7 185.5 105.8 186.7 106 187.3 104.9 187.4 106.2 188.7 106.4 187.6 106.9 187.7 108.1"/>
    <polygon points="187.3 104.9 186.7 106 185.5 105.8 186.3 106.7 185.8 107.8 186.9 107.3 187.7 108.1 187.6 106.9 188.7 106.4 187.4 106.2 187.3 104.9 187.3 104.9"/>
  </g>
</svg>