<svg width="800px" height="800px" viewBox="0 -2.5 20 20" xmlns="http://www.w3.org/2000/svg" preserveAspectRatio="xMidYMid meet">
  <path fill="#450707" d="M10 0C4.48 0 0 4.48 0 10c0 4.42 2.87 8.17 6.84 9.49.5.09.66-.22.66-.48 0-.24-.01-.87-.01-1.71-2.78.61-3.37-1.34-3.37-1.34-.45-1.14-1.1-1.44-1.1-1.44-.9-.61.07-.6.07-.6 1 .07 1.53 1.03 1.53 1.03.89 1.53 2.34 1.09 2.91.83.09-.64.35-1.09.63-1.34-2.22-.25-4.56-1.11-4.56-4.95 0-1.09.39-1.98 1.03-2.68-.1-.25-.45-1.27.1-2.64 0 0 .84-.27 2.75 1.02A9.56 9.56 0 0110 4.83c.85 0 1.7.11 2.5.33 1.9-1.29 2.75-1.02 2.75-1.02.55 1.37.2 2.39.1 2.64.64.7 1.03 1.59 1.03 2.68 0 3.85-2.34 4.7-4.57 4.95.36.31.68.91.68 1.83 0 1.32-.01 2.39-.01 2.71 0 .27.17.58.67.48A10.005 10.005 0 0020 10c0-5.52-4.48-10-10-10z"/>
</svg>
