<svg width="800px" height="800px" viewBox="0 -2.5 20 20" xmlns="http://www.w3.org/2000/svg" preserveAspectRatio="xMidYMid meet">
  <path fill="#450707" d="M10 0C4.48 0 0 4.48 0 10s4.48 10 10 10 10-4.48 10-10S15.52 0 10 0zm-2.9 4.29c.84 0 1.36.55 1.36 1.27 0 .73-.52 1.27-1.39 1.27-.86 0-1.37-.54-1.37-1.27 0-.72.52-1.27 1.4-1.27zm1.45 11.42H5.66V7.81h2.89v7.9zM15.9 15.71h-2.84v-4.17c0-1-.36-1.69-1.25-1.69-.68 0-1.09.46-1.27.91-.06.15-.07.36-.07.57v4.38h-2.84s.04-7.1 0-7.9h2.84v1.12c.38-.6 1.06-1.45 2.57-1.45 1.88 0 3.3 1.23 3.3 3.86v4.37z"/>
</svg>
